<svg width="33" height="33" viewBox="0 0 33 33" fill="none" xmlns="http://www.w3.org/2000/svg">
<rect x="1.88491" y="1.89797" width="28.8" height="28.8" rx="14.4" stroke="#00B3FF" stroke-width="3.2"/>
<path d="M26.1297 11.3346C25.8934 10.4448 25.1971 9.74406 24.3131 9.50624C22.7107 9.0741 16.2853 9.0741 16.2853 9.0741C16.2853 9.0741 9.85989 9.0741 8.25746 9.50624C7.37341 9.7441 6.67715 10.4448 6.44084 11.3346C6.01147 12.9475 6.01147 16.3124 6.01147 16.3124C6.01147 16.3124 6.01147 19.6774 6.44084 21.2902C6.67715 22.18 7.37341 22.8516 8.25746 23.0894C9.85989 23.5216 16.2853 23.5216 16.2853 23.5216C16.2853 23.5216 22.7106 23.5216 24.3131 23.0894C25.1971 22.8516 25.8934 22.18 26.1297 21.2902C26.559 19.6774 26.559 16.3124 26.559 16.3124C26.559 16.3124 26.559 12.9475 26.1297 11.3346ZM14.1838 19.3676V13.2573L19.5541 16.3125L14.1838 19.3676Z" fill="#00B3FF"/>
</svg>
