<svg width="33" height="33" viewBox="0 0 33 33" fill="none" xmlns="http://www.w3.org/2000/svg">
<rect x="1.88491" y="1.89797" width="28.8" height="28.8" rx="14.4" stroke="#00B3FF" stroke-width="3.2"/>
<path d="M16.4983 11.4536C13.8168 11.4536 11.654 13.6165 11.654 16.2979C11.654 18.9793 13.8168 21.1422 16.4983 21.1422C19.1797 21.1422 21.3425 18.9793 21.3425 16.2979C21.3425 13.6165 19.1797 11.4536 16.4983 11.4536ZM16.4983 19.4473C14.7655 19.4473 13.3489 18.0349 13.3489 16.2979C13.3489 14.5609 14.7612 13.1485 16.4983 13.1485C18.2353 13.1485 19.6477 14.5609 19.6477 16.2979C19.6477 18.0349 18.2311 19.4473 16.4983 19.4473ZM22.6706 11.2555C22.6706 11.8837 22.1647 12.3854 21.5407 12.3854C20.9125 12.3854 20.4108 11.8794 20.4108 11.2555C20.4108 10.6315 20.9167 10.1255 21.5407 10.1255C22.1647 10.1255 22.6706 10.6315 22.6706 11.2555ZM25.879 12.4022C25.8074 10.8887 25.4617 9.54794 24.3528 8.44333C23.2482 7.33872 21.9075 6.993 20.3939 6.91711C18.834 6.82857 14.1583 6.82857 12.5984 6.91711C11.089 6.98878 9.74833 7.3345 8.6395 8.43912C7.53067 9.54373 7.18917 10.8844 7.11328 12.398C7.02474 13.958 7.02474 18.6336 7.11328 20.1935C7.18495 21.7071 7.53067 23.0478 8.6395 24.1524C9.74833 25.2571 11.0848 25.6028 12.5984 25.6787C14.1583 25.7672 18.834 25.7672 20.3939 25.6787C21.9075 25.607 23.2482 25.2613 24.3528 24.1524C25.4574 23.0478 25.8032 21.7071 25.879 20.1935C25.9676 18.6336 25.9676 13.9622 25.879 12.4022ZM23.8638 21.8673C23.5349 22.6937 22.8983 23.3303 22.0677 23.6634C20.824 24.1567 17.8727 24.0428 16.4983 24.0428C15.1238 24.0428 12.1684 24.1524 10.9288 23.6634C10.1025 23.3345 9.46585 22.6979 9.13278 21.8673C8.6395 20.6236 8.75333 17.6723 8.75333 16.2979C8.75333 14.9234 8.64371 11.968 9.13278 10.7284C9.46163 9.90209 10.0983 9.26547 10.9288 8.9324C12.1726 8.43912 15.1238 8.55295 16.4983 8.55295C17.8727 8.55295 20.8282 8.44333 22.0677 8.9324C22.8941 9.26125 23.5307 9.89788 23.8638 10.7284C24.357 11.9722 24.2432 14.9234 24.2432 16.2979C24.2432 17.6723 24.357 20.6278 23.8638 21.8673Z" fill="#00B3FF"/>
</svg>
