<svg width="33" height="33" viewBox="0 0 33 33" fill="none" xmlns="http://www.w3.org/2000/svg">
<rect x="1.88491" y="1.89797" width="28.8" height="28.8" rx="14.4" stroke="#00B3FF" stroke-width="3.2"/>
<path d="M11.6276 24.1584H8.13769V12.9214H11.6328V24.1584H11.6276ZM9.88263 11.3867C8.76313 11.3867 7.85913 10.4775 7.85913 9.36322C7.85913 8.24898 8.76313 7.33972 9.88263 7.33972C10.9969 7.33972 11.9061 8.24898 11.9061 9.36322C11.9061 10.4827 11.0021 11.3867 9.88263 11.3867ZM24.7093 24.1584H21.2195V18.6923C21.2195 17.3889 21.1932 15.7123 19.4062 15.7123C17.5877 15.7123 17.3091 17.1313 17.3091 18.5977V24.1584H13.8193V12.9214H17.1672V14.4561H17.2145C17.6823 13.5731 18.8228 12.6429 20.5204 12.6429C24.0524 12.6429 24.7093 14.9712 24.7093 17.9986V24.1584Z" fill="#00B3FF"/>
</svg>
