<svg width="32" height="32" viewBox="0 0 32 32" fill="none" xmlns="http://www.w3.org/2000/svg">
<rect x="1.6" y="1.6" width="28.8" height="28.8" rx="14.4" stroke="#00B3FF" stroke-width="3.2"/>
<path d="M24.7109 14.1992C23.0398 14.2029 21.4097 13.6659 20.0511 12.6641V19.6484C20.0507 20.942 19.6667 22.2046 18.9503 23.2673C18.234 24.3301 17.2195 25.1424 16.0426 25.5955C14.8656 26.0487 13.5823 26.1211 12.3643 25.8031C11.1463 25.4852 10.0516 24.7919 9.22667 23.8161C8.40175 22.8404 7.88591 21.6286 7.74814 20.3428C7.61037 19.0571 7.85724 17.7587 8.45573 16.6213C9.05423 15.4839 9.97581 14.5617 11.0972 13.9781C12.2186 13.3945 13.4864 13.1773 14.731 13.3555V16.8672C14.1619 16.6828 13.5508 16.6882 12.9848 16.8826C12.4189 17.077 11.9271 17.4506 11.5797 17.9499C11.2323 18.4492 11.047 19.0487 11.0503 19.6629C11.0536 20.2771 11.2453 20.8744 11.5981 21.3698C11.9508 21.8651 12.4466 22.233 13.0146 22.421C13.5826 22.609 14.1938 22.6074 14.7608 22.4165C15.3279 22.2256 15.8219 21.8552 16.1723 21.3581C16.5227 20.861 16.7115 20.2626 16.7118 19.6484V6H20.0511C20.0492 6.29073 20.0734 6.58102 20.1232 6.86719C20.2393 7.50508 20.4806 8.11189 20.8323 8.65054C21.184 9.1892 21.6386 9.64837 22.1685 10C22.9228 10.5128 23.807 10.7859 24.7109 10.7852V14.1992Z" fill="#00B3FF"/>
</svg>
