<svg width="64" height="64" viewBox="0 0 64 64" fill="none" xmlns="http://www.w3.org/2000/svg">
<circle cx="32.0002" cy="32" r="23.0583" transform="rotate(-180 32.0002 32)" fill="#00B3FF"/>
<circle cx="31.9998" cy="32" r="19.4788" transform="rotate(-180 31.9998 32)" fill="white"/>
<circle cx="31.9998" cy="32" r="19.4788" transform="rotate(-180 31.9998 32)" stroke="#00B3FF"/>
<path d="M38.1914 41.8086L28.3826 31.9998L38.1914 22.1909L47.2931 31.2927C47.6836 31.6832 47.6837 32.3164 47.2931 32.7069L38.1914 41.8086Z" fill="#00B3FF"/>
<path d="M36 20L32.7071 16.7071C32.3166 16.3166 31.6834 16.3166 31.2929 16.7071L16.7071 31.2929C16.3166 31.6834 16.3166 32.3166 16.7071 32.7071L31.2929 47.2929C31.6834 47.6834 32.3166 47.6834 32.7071 47.2929L36 44L24 32L36 20Z" fill="#00B3FF"/>
</svg>
