<svg width="239" height="33" viewBox="0 0 239 33" fill="none" xmlns="http://www.w3.org/2000/svg">
<path d="M7.64111 19.0999C6.27905 18.4348 4.93949 17.7049 3.86632 16.6518C2.63515 15.4436 1.87743 13.901 1.6315 12.223C1.42358 10.8054 1.45835 9.41135 1.73581 8.04096C2.57073 3.92087 6.18753 1.24138 10.4133 1.01491C13.5193 0.848899 16.6985 1.75478 18.8939 3.97886C18.8995 3.98443 18.9029 3.9917 18.9036 3.9994C18.9042 4.0071 18.9021 4.01474 18.8975 4.02098L15.3073 8.96766C15.2957 8.98351 15.2831 8.9845 15.2694 8.97063C15.0564 8.7549 14.9161 8.6163 14.8486 8.55485C13.3833 7.2109 10.8632 6.51017 9.16677 7.8462C8.53329 8.34523 8.3027 9.06974 8.23726 9.85818C8.1396 11.0391 8.50057 11.8835 9.47149 12.5966C10.4802 13.3385 11.7513 13.9579 12.7406 14.4634C13.4114 14.806 14.0585 15.1863 14.682 15.6042C16.7772 17.0081 18.2369 19.1588 18.4997 21.6238C18.9481 25.833 17.2747 29.9526 13.1358 31.7143C10.5268 32.8244 7.24742 32.7853 4.60563 31.81C3.0043 31.2188 1.44591 30.3357 0.215256 29.1716C0.203667 29.1607 0.202474 29.1488 0.211677 29.1359L3.74054 24.1303C3.76781 24.0913 3.79814 24.0888 3.83155 24.1229C5.08981 25.3915 6.83175 26.2652 8.66418 26.3192C10.2082 26.3643 11.5008 25.386 11.7094 23.8781C11.8801 22.6421 11.5601 21.5554 10.5196 20.7897C9.60494 20.1168 8.66265 19.5989 7.64111 19.0999Z" fill="white"/>
<path d="M160.78 13.359L160.948 32.0815C160.948 32.0835 160.948 32.0856 160.947 32.0875C160.946 32.0894 160.945 32.0912 160.944 32.0926C160.942 32.0941 160.94 32.0953 160.938 32.0961C160.936 32.0969 160.934 32.0973 160.932 32.0973H154.79C154.774 32.0973 154.765 32.0888 154.765 32.0718V1.24349C154.765 1.22747 154.773 1.21946 154.789 1.21946H162.353C162.373 1.21946 162.386 1.22866 162.392 1.24706C164.699 7.48841 167.004 13.7282 169.308 19.9665C169.351 20.0815 169.424 20.3239 169.52 20.2681C169.536 20.2589 169.544 20.245 169.544 20.2262L169.414 1.24195C169.414 1.22662 169.422 1.21895 169.437 1.21895L175.353 1.21946C175.36 1.21946 175.367 1.22215 175.371 1.22695C175.376 1.23174 175.379 1.23824 175.379 1.24502V32.0718C175.379 32.0888 175.37 32.0973 175.353 32.0973H168.008C167.991 32.0973 167.98 32.0893 167.975 32.0733C167.96 32.0249 167.931 31.9438 167.888 31.83C165.565 25.6714 163.242 19.5125 160.919 13.3533C160.895 13.2884 160.852 13.2603 160.797 13.315C160.785 13.3273 160.779 13.3419 160.78 13.359Z" fill="white"/>
<path d="M137.411 13.359L137.579 32.0815C137.579 32.0835 137.579 32.0856 137.578 32.0875C137.578 32.0894 137.576 32.0912 137.575 32.0926C137.573 32.0941 137.572 32.0953 137.57 32.0961C137.568 32.0969 137.566 32.0973 137.564 32.0973H131.422C131.405 32.0973 131.396 32.0888 131.396 32.0718V1.24349C131.396 1.22747 131.404 1.21946 131.42 1.21946H138.985C139.004 1.21946 139.017 1.22866 139.024 1.24706C141.33 7.48841 143.635 13.7282 145.94 19.9665C145.982 20.0815 146.055 20.3239 146.151 20.2681C146.167 20.2589 146.175 20.245 146.175 20.2262L146.046 1.24195C146.046 1.22662 146.053 1.21895 146.068 1.21895L151.985 1.21946C151.992 1.21946 151.998 1.22215 152.003 1.22695C152.007 1.23174 152.01 1.23824 152.01 1.24502V32.0718C152.01 32.0888 152.002 32.0973 151.985 32.0973H144.639C144.622 32.0973 144.611 32.0893 144.606 32.0733C144.591 32.0249 144.562 31.9438 144.519 31.83C142.196 25.6714 139.873 19.5125 137.55 13.3533C137.526 13.2884 137.483 13.2603 137.429 13.315C137.417 13.3273 137.411 13.3419 137.411 13.359Z" fill="white"/>
<path d="M213.089 26.182L212.469 32.0746C212.468 32.0915 212.459 32.1 212.444 32.1L211.307 32.1C211.288 32.1 211.279 32.0893 211.281 32.068L212.678 18.7736C212.679 18.7672 212.682 18.761 212.687 18.7564C212.691 18.7518 212.697 18.7492 212.703 18.7492C213.69 18.7489 214.68 18.7489 215.67 18.7492C216.865 18.7497 217.867 19.453 218.183 20.7075C218.372 21.4555 218.313 22.3538 218.125 23.1571C217.783 24.6149 216.802 25.8161 215.422 26.0935C215.224 26.1332 214.916 26.1535 214.496 26.1545C214.037 26.1555 213.577 26.1555 213.116 26.1545C213.1 26.1545 213.091 26.1637 213.089 26.182ZM214.827 25.0336C215.839 25.0153 216.645 24.2643 216.924 23.1825C217.248 21.926 217.217 20.3427 215.921 19.9677C215.745 19.9172 215.447 19.8922 215.025 19.8925C214.608 19.8928 214.194 19.8928 213.785 19.8925C213.762 19.8925 213.748 19.9054 213.746 19.9311L213.213 25.0001C213.211 25.0214 213.219 25.0323 213.239 25.0326C213.773 25.0428 214.302 25.0431 214.827 25.0336Z" fill="white"/>
<path d="M223.211 30.8998L223.088 32.068C223.087 32.0765 223.083 32.0846 223.077 32.0906C223.071 32.0966 223.063 32.1 223.055 32.1L218.439 32.1C218.432 32.1 218.424 32.0966 218.42 32.0906C218.415 32.0846 218.413 32.0765 218.414 32.068L219.81 18.7812C219.811 18.7728 219.815 18.7646 219.821 18.7586C219.827 18.7526 219.835 18.7492 219.842 18.7492L220.996 18.7492C221.004 18.7492 221.011 18.7526 221.016 18.7586C221.021 18.7646 221.023 18.7728 221.022 18.7812L219.754 30.8399C219.754 30.8484 219.756 30.8565 219.761 30.8625C219.765 30.8685 219.772 30.8719 219.78 30.8719L223.185 30.8678C223.193 30.8678 223.2 30.8712 223.205 30.8772C223.209 30.8832 223.212 30.8913 223.211 30.8998Z" fill="white"/>
<path d="M230.323 29.3326C229.864 30.9347 228.836 32.2014 227.257 32.3838C225.901 32.5408 224.691 32.1973 224.098 30.8727C223.627 29.8219 223.663 28.4886 223.79 27.2651C224.084 24.4355 224.381 21.606 224.681 18.7765C224.683 18.7595 224.691 18.7511 224.707 18.7511L225.858 18.7511C225.875 18.7511 225.882 18.76 225.88 18.778L225.01 27.0709C224.834 28.7467 224.792 31.2914 226.894 31.2146C228.685 31.1491 229.294 29.1685 229.462 27.5923C229.774 24.6547 230.085 21.7154 230.394 18.7744C230.395 18.7682 230.398 18.7623 230.402 18.7579C230.407 18.7535 230.412 18.7511 230.418 18.7511L231.584 18.7511C231.59 18.7511 231.595 18.7536 231.599 18.758C231.602 18.7625 231.604 18.7686 231.603 18.7749C231.289 21.8209 230.967 24.8659 230.637 27.9098C230.599 28.2628 230.494 28.7371 230.323 29.3326Z" fill="white"/>
<path d="M237.509 29.7132C236.552 33.0058 232.872 33.1699 231.443 30.8717C231.439 30.8647 231.437 30.856 231.438 30.8471C231.439 30.8382 231.443 30.8297 231.449 30.8229L232.232 29.954C232.237 29.9485 232.243 29.9442 232.249 29.9413C232.255 29.9384 232.262 29.9371 232.269 29.9374C232.275 29.9377 232.282 29.9396 232.287 29.943C232.293 29.9464 232.297 29.9512 232.301 29.9571C232.746 30.7457 233.581 31.2823 234.502 31.206C235.398 31.1319 236.109 30.4489 236.391 29.4856C236.825 28.0054 236.347 26.9125 235.257 26.2082C234.079 25.447 232.867 24.8165 232.686 23.0833C232.606 22.3125 232.749 21.3679 233.073 20.6149C233.612 19.3644 234.682 18.5331 235.906 18.4411C237.003 18.3588 238.034 18.7074 238.609 19.6947C238.613 19.7013 238.614 19.7094 238.613 19.7176C238.612 19.7259 238.608 19.7337 238.603 19.7399L237.826 20.6017C237.794 20.6362 237.769 20.6345 237.749 20.5966C237.306 19.7612 236.333 19.4182 235.423 19.7495C234.794 19.9779 234.345 20.4587 234.076 21.1921C233.832 21.8582 233.763 22.6341 233.981 23.2525C234.313 24.1925 235.159 24.6021 235.9 25.07C237.484 26.07 238.13 27.5771 237.509 29.7132Z" fill="white"/>
<path d="M227.873 5.77621L228.927 5.16664C228.94 5.15848 228.948 5.14641 228.95 5.13041C229.013 4.53863 229.076 3.948 229.139 3.3585C229.167 3.09215 229.253 2.86007 229.562 2.91246C229.772 2.94869 229.864 3.08742 229.837 3.32864C229.785 3.78528 229.74 4.24242 229.699 4.70004C229.698 4.71832 229.705 4.72273 229.721 4.71326C230.154 4.45801 230.589 4.20619 231.025 3.95779C231.123 3.9023 231.204 3.87553 231.269 3.87749C231.533 3.8863 231.697 4.17028 231.558 4.39355C231.523 4.45165 231.446 4.51481 231.328 4.58303C230.902 4.82946 230.477 5.07541 230.053 5.32087C230.051 5.32198 230.049 5.32359 230.048 5.32553C230.047 5.32747 230.047 5.32966 230.047 5.33186C230.047 5.33405 230.048 5.33616 230.049 5.33794C230.05 5.33972 230.052 5.3411 230.054 5.34193C230.467 5.52113 230.876 5.70179 231.282 5.88393C231.805 6.11845 231.52 6.75006 231.027 6.53169C230.47 6.28492 229.905 6.03538 229.335 5.78307C229.306 5.77001 229.278 5.77132 229.25 5.78699L228.325 6.31675C228.298 6.33176 228.299 6.34563 228.327 6.35836C228.909 6.61982 229.491 6.87311 230.073 7.11825C230.423 7.26562 230.398 7.65682 230.057 7.80811C229.447 8.07773 228.834 8.3475 228.22 8.61744C228.216 8.61921 228.212 8.62208 228.21 8.62573C228.207 8.62938 228.206 8.63367 228.206 8.63812C228.206 8.64258 228.207 8.64702 228.209 8.65098C228.211 8.65493 228.214 8.65824 228.218 8.66053L229.267 9.26912C229.281 9.27728 229.296 9.27809 229.311 9.27157C229.885 9.01533 230.459 8.7609 231.034 8.50826C231.508 8.29919 231.798 8.92149 231.276 9.15651C230.873 9.33799 230.468 9.51833 230.061 9.69753C230.058 9.69884 230.055 9.70091 230.054 9.70351C230.052 9.7061 230.051 9.70913 230.051 9.71226C230.051 9.71539 230.051 9.7185 230.053 9.72126C230.054 9.72401 230.056 9.72631 230.059 9.72789C230.482 9.96845 230.905 10.2121 231.328 10.4589C231.451 10.5307 231.531 10.5989 231.569 10.6635C231.687 10.8677 231.528 11.1923 231.275 11.1806C231.205 11.1773 231.111 11.1421 230.993 11.0748C230.571 10.8339 230.149 10.5899 229.728 10.3428C229.724 10.3409 229.72 10.3399 229.716 10.34C229.713 10.3401 229.709 10.3413 229.705 10.3433C229.702 10.3454 229.7 10.3484 229.698 10.3518C229.696 10.3553 229.696 10.3591 229.696 10.3629C229.746 10.8042 229.793 11.248 229.839 11.6942C229.851 11.813 229.842 11.9032 229.812 11.9649C229.712 12.1725 229.387 12.2039 229.245 12.0335C229.196 11.9747 229.164 11.8766 229.15 11.7392C229.088 11.1328 229.024 10.5261 228.958 9.91933C228.956 9.90072 228.947 9.88685 228.931 9.87771L227.906 9.28185C227.902 9.27975 227.898 9.27871 227.894 9.27885C227.889 9.27898 227.885 9.28029 227.881 9.28262C227.878 9.28495 227.875 9.28821 227.873 9.29205C227.871 9.29589 227.871 9.30015 227.871 9.30437C227.943 9.9487 228.015 10.5958 228.085 11.2457C228.098 11.3661 228.091 11.4559 228.065 11.515C227.983 11.7005 227.74 11.7622 227.571 11.6364C227.047 11.2437 226.524 10.8504 226.001 10.4564C225.999 10.4548 225.996 10.4538 225.994 10.4536C225.991 10.4533 225.988 10.4538 225.986 10.4551C225.983 10.4563 225.981 10.4582 225.98 10.4605C225.979 10.4628 225.978 10.4655 225.978 10.4682V11.6271C225.978 11.6424 225.984 11.6547 225.996 11.6638C226.437 11.9912 226.876 12.3189 227.315 12.647C227.477 12.7681 227.569 12.8426 227.591 12.8707C227.745 13.069 227.564 13.4622 227.287 13.4318C227.216 13.424 227.126 13.3798 227.018 13.2991C226.681 13.0465 226.344 12.7916 226.007 12.5344C226.004 12.5324 226.001 12.5312 225.997 12.5309C225.994 12.5306 225.991 12.5312 225.988 12.5327C225.985 12.5341 225.982 12.5364 225.981 12.5392C225.979 12.542 225.978 12.5452 225.978 12.5486C225.978 13.0574 225.978 13.5696 225.977 14.085C225.977 14.4399 225.58 14.6622 225.379 14.3405C225.34 14.2798 225.32 14.1808 225.318 14.0433C225.31 13.5456 225.306 13.052 225.305 12.5627C225.305 12.5592 225.304 12.5556 225.302 12.5525C225.301 12.5494 225.298 12.5469 225.295 12.5453C225.291 12.5436 225.288 12.5428 225.284 12.5431C225.281 12.5433 225.277 12.5445 225.274 12.5466C224.88 12.8205 224.489 13.0953 224.099 13.3711C223.73 13.6321 223.246 13.1185 223.704 12.7924C224.237 12.4124 224.763 12.0403 225.281 11.6761C225.306 11.6584 225.318 11.6344 225.318 11.6041L225.306 10.3894C225.306 10.387 225.305 10.3848 225.304 10.3828C225.303 10.3808 225.301 10.3792 225.299 10.3781C225.297 10.3771 225.295 10.3766 225.293 10.3768C225.29 10.3769 225.288 10.3777 225.286 10.3791C224.726 10.7763 224.167 11.1734 223.609 11.5703C223.3 11.7896 222.846 11.749 222.909 11.2604C222.947 10.9627 223.015 10.3296 223.112 9.36117C223.115 9.33864 223.106 9.33309 223.086 9.34452L222.162 9.87722C222.15 9.8844 222.143 9.89484 222.141 9.90855C222.075 10.5317 222.01 11.1541 221.946 11.7759C221.888 12.3214 221.196 12.2362 221.255 11.7128C221.306 11.2601 221.353 10.8067 221.399 10.3526C221.401 10.3327 221.393 10.3277 221.376 10.3375C220.982 10.5565 220.592 10.7807 220.205 11.0102C220.062 11.0951 219.958 11.1442 219.894 11.1576C219.498 11.2408 219.322 10.7179 219.693 10.5029C220.124 10.2526 220.563 9.99864 221.01 9.74111C221.041 9.72348 221.04 9.70732 221.008 9.69263C220.592 9.50854 220.166 9.32053 219.732 9.1286C219.332 8.95234 219.565 8.30213 220.07 8.52148C220.638 8.76759 221.204 9.01909 221.767 9.27597C221.775 9.2796 221.784 9.28128 221.793 9.28085C221.801 9.28043 221.81 9.27791 221.817 9.27352L222.828 8.68452C222.849 8.67277 222.848 8.662 222.827 8.6522C222.199 8.37345 221.571 8.09633 220.944 7.82084C220.574 7.65878 220.531 7.30283 220.921 7.12706C221.516 6.85908 222.116 6.59371 222.721 6.33095C222.725 6.32951 222.728 6.3271 222.73 6.324C222.732 6.3209 222.733 6.31725 222.733 6.31345C222.734 6.30965 222.733 6.30588 222.731 6.30256C222.729 6.29925 222.726 6.29653 222.723 6.29472L221.813 5.7723C221.8 5.76479 221.787 5.76414 221.773 5.77034C221.221 6.0171 220.669 6.26305 220.117 6.50819C219.971 6.57282 219.852 6.62423 219.701 6.54638C219.44 6.41222 219.47 6.04256 219.745 5.91722C220.17 5.72366 220.596 5.53271 221.024 5.34437C221.027 5.34309 221.029 5.34109 221.031 5.33858C221.033 5.33607 221.034 5.33315 221.034 5.33013C221.034 5.32711 221.033 5.3241 221.032 5.32144C221.03 5.31877 221.028 5.31655 221.026 5.315C220.612 5.07868 220.2 4.84138 219.79 4.6031C219.666 4.53129 219.585 4.47139 219.547 4.42341C219.294 4.10467 219.69 3.7453 220.054 3.95436C220.492 4.20635 220.931 4.45948 221.37 4.71375C221.373 4.71533 221.376 4.71616 221.379 4.71613C221.382 4.7161 221.385 4.71521 221.387 4.71358C221.39 4.71195 221.392 4.70963 221.393 4.70689C221.394 4.70415 221.395 4.7011 221.394 4.69808C221.345 4.25384 221.297 3.80878 221.251 3.36291C221.193 2.79985 221.88 2.72837 221.944 3.31248C222.01 3.91405 222.075 4.51676 222.139 5.12062C222.14 5.13152 222.144 5.14205 222.15 5.15134C222.156 5.16062 222.164 5.16839 222.174 5.17399L223.107 5.71207C223.123 5.72121 223.129 5.71681 223.127 5.69885C223.056 5.00654 222.984 4.31439 222.911 3.6224C222.886 3.38984 223.083 3.22386 223.298 3.23316C223.376 3.23642 223.474 3.27967 223.591 3.36291C224.156 3.76276 224.722 4.16375 225.29 4.56589C225.292 4.56762 225.295 4.56866 225.298 4.5689C225.3 4.56914 225.303 4.56856 225.306 4.56724C225.308 4.56592 225.311 4.5639 225.312 4.56141C225.314 4.55893 225.314 4.55607 225.314 4.55316L225.308 3.42313C225.308 3.40779 225.301 3.39555 225.289 3.38641C224.773 3.02148 224.256 2.65558 223.74 2.2887C223.225 1.92344 223.662 1.39907 224.167 1.74718C224.54 2.00374 224.914 2.2616 225.29 2.52077C225.292 2.52284 225.296 2.52406 225.299 2.52429C225.303 2.52453 225.307 2.52377 225.31 2.5221C225.313 2.52043 225.316 2.51791 225.318 2.51483C225.319 2.51175 225.32 2.50821 225.32 2.50462C225.311 1.99705 225.308 1.48508 225.311 0.968696C225.314 0.433549 225.974 0.435997 225.976 0.962821C225.978 1.48018 225.979 1.98775 225.977 2.48552C225.977 2.5211 225.991 2.52828 226.02 2.50706C226.389 2.22798 226.749 1.95788 227.099 1.69675C227.475 1.4162 227.868 1.97877 227.462 2.28478C226.976 2.65101 226.489 3.01708 226 3.38298C225.993 3.38814 225.987 3.39485 225.984 3.40258C225.98 3.41031 225.978 3.41885 225.978 3.42754V4.47531C225.978 4.47758 225.978 4.47981 225.98 4.48175C225.981 4.48368 225.982 4.48524 225.984 4.48626C225.987 4.48727 225.989 4.48771 225.991 4.4875C225.993 4.4873 225.995 4.48647 225.997 4.4851C226.52 4.08884 227.043 3.69389 227.564 3.30024C227.825 3.1039 228.114 3.3585 228.081 3.64737C227.999 4.35209 227.923 5.0573 227.852 5.76299C227.85 5.78095 227.857 5.78535 227.873 5.77621ZM225.281 6.89498C225.284 6.89662 225.287 6.89746 225.29 6.8974C225.294 6.89734 225.297 6.8964 225.3 6.89466C225.303 6.89292 225.305 6.89045 225.307 6.88749C225.308 6.88454 225.309 6.88121 225.309 6.87784L225.307 5.44181C225.307 5.43872 225.306 5.43568 225.305 5.43295C225.303 5.43022 225.301 5.42788 225.299 5.42614L223.755 4.33724C223.752 4.33516 223.748 4.33399 223.744 4.33386C223.741 4.33372 223.737 4.33464 223.734 4.33649C223.731 4.33835 223.728 4.34106 223.727 4.34432C223.725 4.34758 223.724 4.35124 223.725 4.35487L223.912 6.14489C223.912 6.14795 223.913 6.15088 223.915 6.15344C223.917 6.15599 223.919 6.1581 223.922 6.15958L225.281 6.89498ZM225.966 5.37571V6.86756C225.966 6.89368 225.977 6.90004 225.999 6.88666C226.198 6.76948 226.512 6.57853 226.941 6.31381C226.995 6.28117 227.038 6.24967 227.072 6.21931C227.084 6.20789 227.092 6.19385 227.094 6.17721L227.333 4.34507C227.333 4.34236 227.333 4.3396 227.331 4.33714C227.33 4.33468 227.328 4.33263 227.326 4.33126C227.324 4.32989 227.321 4.32926 227.318 4.32945C227.315 4.32965 227.313 4.33065 227.311 4.33234L225.989 5.32724C225.973 5.33932 225.966 5.35547 225.966 5.37571ZM221.884 7.44824C221.881 7.44956 221.879 7.45169 221.877 7.45439C221.875 7.45708 221.874 7.46022 221.874 7.46342C221.874 7.46663 221.875 7.46977 221.877 7.47246C221.879 7.47515 221.881 7.47728 221.884 7.4786L223.597 8.23016C223.599 8.23121 223.602 8.23167 223.605 8.2315C223.607 8.23133 223.61 8.23054 223.612 8.22918L224.817 7.53001C224.82 7.52855 224.822 7.52645 224.823 7.52391C224.825 7.52138 224.825 7.5185 224.825 7.51557C224.825 7.51264 224.825 7.50976 224.823 7.50722C224.822 7.50468 224.82 7.50258 224.817 7.50112L223.499 6.74173C223.497 6.74037 223.494 6.73958 223.492 6.73941C223.489 6.73924 223.486 6.7397 223.484 6.74075L221.884 7.44824ZM226.256 7.50063C226.253 7.50199 226.251 7.50397 226.25 7.50639C226.248 7.5088 226.247 7.51154 226.247 7.51434C226.247 7.51714 226.248 7.51989 226.25 7.5223C226.251 7.52471 226.253 7.5267 226.256 7.52805L227.419 8.20078C227.421 8.20198 227.423 8.20264 227.426 8.20273C227.428 8.20281 227.431 8.20231 227.433 8.20127L229.078 7.47713C229.081 7.47587 229.083 7.47387 229.085 7.47135C229.087 7.46884 229.087 7.46591 229.087 7.46293C229.087 7.45995 229.087 7.45703 229.085 7.45452C229.083 7.452 229.081 7.45 229.078 7.44874L227.542 6.76866C227.539 6.76762 227.537 6.76712 227.534 6.7672C227.532 6.76729 227.53 6.76796 227.527 6.76915L226.256 7.50063ZM225.308 9.49189C225.31 9.49032 225.312 9.48826 225.313 9.48587C225.314 9.48349 225.315 9.48085 225.315 9.47818L225.31 8.14888C225.31 8.14601 225.309 8.14318 225.307 8.14068C225.306 8.13818 225.304 8.13609 225.301 8.13461C225.299 8.13313 225.296 8.13231 225.293 8.13224C225.29 8.13217 225.288 8.13284 225.285 8.13419L223.861 8.90093C223.859 8.90233 223.857 8.90432 223.855 8.90671C223.854 8.90911 223.853 8.91184 223.853 8.91464L223.726 10.5744C223.725 10.5776 223.726 10.5808 223.728 10.5836C223.729 10.5864 223.731 10.5887 223.734 10.5902C223.737 10.5918 223.74 10.5925 223.743 10.5923C223.746 10.5921 223.75 10.591 223.752 10.5891L225.308 9.49189ZM225.999 9.59912C226.444 9.92944 226.887 10.2616 227.328 10.5955C227.329 10.5969 227.331 10.5977 227.334 10.5979C227.336 10.598 227.338 10.5975 227.34 10.5964C227.342 10.5953 227.343 10.5937 227.344 10.5917C227.345 10.5897 227.346 10.5874 227.345 10.5852L227.125 8.84266C227.124 8.83549 227.122 8.8286 227.118 8.82249C227.114 8.81639 227.109 8.81123 227.102 8.80741L225.991 8.13762C225.989 8.13614 225.986 8.13534 225.983 8.13529C225.98 8.13524 225.977 8.13595 225.975 8.13734C225.972 8.13873 225.97 8.14076 225.969 8.14322C225.967 8.14567 225.966 8.14847 225.966 8.15133C225.966 8.31486 225.94 9.55505 225.999 9.59912Z" fill="white"/>
<path fill-rule="evenodd" clip-rule="evenodd" d="M30.8459 32.5443C37.0911 32.5443 42.1538 25.4819 42.1538 16.77C42.1538 8.05812 37.0911 0.995741 30.8459 0.995741C24.6008 0.995741 19.5381 8.05812 19.5381 16.77C19.5381 25.4819 24.6008 32.5443 30.8459 32.5443ZM30.8457 25.4849C33.2269 25.4849 35.1572 21.5526 35.1572 16.7019C35.1572 11.8512 33.2269 7.91888 30.8457 7.91888C28.4645 7.91888 26.5342 11.8512 26.5342 16.7019C26.5342 21.5526 28.4645 25.4849 30.8457 25.4849Z" fill="white"/>
<path fill-rule="evenodd" clip-rule="evenodd" d="M118.282 32.5443C124.528 32.5443 129.59 25.4819 129.59 16.77C129.59 8.05812 124.528 0.995741 118.282 0.995741C112.037 0.995741 106.975 8.05812 106.975 16.77C106.975 25.4819 112.037 32.5443 118.282 32.5443ZM118.282 25.4849C120.663 25.4849 122.594 21.5526 122.594 16.7019C122.594 11.8512 120.663 7.91888 118.282 7.91888C115.901 7.91888 113.971 11.8512 113.971 16.7019C113.971 21.5526 115.901 25.4849 118.282 25.4849Z" fill="white"/>
<path d="M51.5679 1.21895H44.106V32.0973H59.298V25.9627H51.5679V1.21895Z" fill="white"/>
<path d="M59.3018 1.21864H66.0396L66.042 22.0028C66.045 27.3179 72.1768 27.5147 72.3052 22.0028L72.3053 1.21864H79.0431L79.043 22.0028C79.043 36.0977 59.3018 36.0189 59.3018 22.0028V1.21864Z" fill="white"/>
<path d="M97.6289 1.21858L79.543 1.21864V7.35017L85.1502 7.35011V32.101H91.3981V7.35011H97.6289V1.21858Z" fill="white"/>
<path d="M210.778 1.21895H194.633V7.38178H199.229L199.229 32.101H205.545L205.545 7.38178H210.778V1.21895Z" fill="white"/>
<rect x="104.451" y="1.21895" width="30.8825" height="6.31641" transform="rotate(90 104.451 1.21895)" fill="white"/>
<path d="M194.133 1.21895H179.039V32.101H194.133V25.9382H185.355V18.3606H192.314V12.1978H185.355V7.38177H194.133V1.21895Z" fill="white"/>
</svg>
