<svg width="30" height="34" viewBox="0 0 30 34" fill="none" xmlns="http://www.w3.org/2000/svg">
<path d="M20.4402 13.1839L22.9106 11.7553C22.9427 11.7362 22.9611 11.7079 22.9657 11.6704C23.1124 10.2835 23.2599 8.89927 23.4082 7.51773C23.4747 6.89352 23.6753 6.34963 24.3986 6.4724C24.8916 6.55731 25.1063 6.88243 25.0429 7.44774C24.9229 8.51793 24.8155 9.58927 24.7207 10.6618C24.7169 10.7046 24.7337 10.7149 24.7712 10.6927C25.7876 10.0945 26.8067 9.50436 27.8285 8.92222C28.0578 8.79217 28.2481 8.72945 28.3994 8.73404C29.0196 8.75469 29.4025 9.42022 29.0781 9.94345C28.994 10.0796 28.8136 10.2276 28.537 10.3875C27.5389 10.9651 26.5431 11.5415 25.5496 12.1167C25.5451 12.1193 25.5415 12.1231 25.5391 12.1277C25.5366 12.1322 25.5356 12.1373 25.5359 12.1425C25.5363 12.1476 25.5381 12.1526 25.5411 12.1567C25.5441 12.1609 25.5482 12.1641 25.553 12.1661C26.5205 12.586 27.4797 13.0095 28.4304 13.4363C29.6558 13.9859 28.9887 15.4662 27.8331 14.9544C26.5263 14.3761 25.2041 13.7913 23.8667 13.1999C23.7987 13.1693 23.7326 13.1724 23.6684 13.2091L21.5006 14.4507C21.4379 14.4858 21.4395 14.5184 21.5052 14.5482C22.8686 15.1609 24.2328 15.7546 25.5977 16.329C26.4174 16.6744 26.3578 17.5912 25.5587 17.9458C24.1288 18.5777 22.694 19.2099 21.2542 19.8426C21.2447 19.8467 21.2365 19.8534 21.2307 19.862C21.2249 19.8705 21.2215 19.8806 21.2211 19.891C21.2206 19.9015 21.223 19.9119 21.228 19.9211C21.2331 19.9304 21.2405 19.9382 21.2496 19.9435L23.7074 21.3698C23.741 21.3889 23.7758 21.3908 23.8117 21.3755C25.156 20.775 26.5014 20.1788 27.848 19.5867C28.96 19.0967 29.6398 20.5551 28.4166 21.1059C27.4713 21.5312 26.5217 21.9539 25.5679 22.3738C25.5612 22.3769 25.5556 22.3818 25.5515 22.3878C25.5474 22.3939 25.545 22.401 25.5446 22.4084C25.5443 22.4157 25.5459 22.423 25.5494 22.4294C25.5529 22.4359 25.5581 22.4413 25.5645 22.445C26.5557 23.0088 27.5465 23.5798 28.537 24.1581C28.8259 24.3264 29.0143 24.4863 29.1021 24.6378C29.3784 25.1163 29.007 25.877 28.4132 25.8495C28.2496 25.8418 28.0299 25.7592 27.754 25.6016C26.7636 25.0371 25.7746 24.4653 24.7872 23.8862C24.7793 23.8817 24.7703 23.8794 24.7611 23.8796C24.752 23.8798 24.7431 23.8825 24.7355 23.8874C24.7279 23.8923 24.7218 23.8991 24.718 23.9072C24.7142 23.9153 24.7128 23.9243 24.7139 23.9332C24.83 24.9675 24.9412 26.0074 25.0475 27.0532C25.0757 27.3316 25.0551 27.5431 24.9856 27.6877C24.7517 28.1742 23.9894 28.2477 23.6569 27.8483C23.5415 27.7106 23.4674 27.4808 23.4345 27.1587C23.2886 25.7374 23.138 24.3157 22.9829 22.8936C22.9783 22.85 22.9573 22.8175 22.9198 22.7961L20.5182 21.3996C20.5093 21.3947 20.4993 21.3923 20.4892 21.3926C20.4791 21.3929 20.4692 21.396 20.4608 21.4014C20.4524 21.4069 20.4457 21.4146 20.4415 21.4236C20.4372 21.4325 20.4356 21.4425 20.4368 21.4524C20.6057 22.9625 20.7727 24.479 20.9378 26.0021C20.9683 26.2844 20.9527 26.4947 20.8907 26.6332C20.6982 27.0681 20.1284 27.2127 19.7341 26.9178C18.5059 25.9975 17.2789 25.0757 16.0531 24.1524C16.0482 24.1486 16.0424 24.1462 16.0362 24.1457C16.03 24.1451 16.0238 24.1463 16.0182 24.1492C16.0126 24.1521 16.0079 24.1564 16.0045 24.1619C16.0012 24.1673 15.9993 24.1736 15.9992 24.1799V26.896C15.9992 26.9319 16.0137 26.9606 16.0428 26.982C17.0745 27.7493 18.1047 28.5173 19.1334 29.2861C19.514 29.5699 19.7295 29.7447 19.7799 29.8105C20.1399 30.2752 19.7169 31.1966 19.068 31.1255C18.9007 31.1071 18.6905 31.0035 18.4375 30.8145C17.6473 30.2224 16.8571 29.625 16.0669 29.0222C16.0606 29.0176 16.0532 29.0147 16.0454 29.014C16.0377 29.0133 16.0299 29.0148 16.0229 29.0182C16.0159 29.0217 16.01 29.0269 16.0058 29.0335C16.0017 29.0401 15.9994 29.0477 15.9992 29.0555C16 30.2481 15.9996 31.4483 15.9981 32.6562C15.9969 33.4881 15.0672 34.009 14.5949 33.2552C14.5047 33.1129 14.4574 32.8807 14.4528 32.5586C14.4344 31.3921 14.4245 30.2354 14.423 29.0887C14.423 29.0803 14.4208 29.072 14.4164 29.0648C14.4121 29.0576 14.4059 29.0517 14.3984 29.0478C14.3909 29.0439 14.3825 29.0421 14.3741 29.0426C14.3657 29.0432 14.3576 29.046 14.3507 29.0509C13.4275 29.6927 12.5093 30.3368 11.596 30.9832C10.7317 31.5948 9.59678 30.3911 10.6698 29.6269C11.9193 28.7365 13.1513 27.8644 14.3657 27.0107C14.4245 26.9694 14.4535 26.9132 14.4528 26.842L14.4253 23.9952C14.4252 23.9897 14.4237 23.9844 14.4208 23.9798C14.418 23.9752 14.4139 23.9714 14.409 23.9689C14.4042 23.9664 14.3988 23.9653 14.3934 23.9657C14.3879 23.9661 14.3827 23.968 14.3783 23.9711C13.0653 24.9021 11.755 25.8326 10.4474 26.7629C9.72403 27.2769 8.66021 27.1817 8.80694 26.0365C8.89712 25.3389 9.05608 23.8552 9.28382 21.5855C9.28917 21.5328 9.26854 21.5197 9.22192 21.5465L7.05644 22.795C7.02817 22.8118 7.01212 22.8363 7.0083 22.8684C6.85392 24.3287 6.70107 25.7875 6.54975 27.2448C6.41563 28.523 4.79353 28.3234 4.93109 27.0968C5.04955 26.0357 5.16189 24.9732 5.26812 23.9091C5.27271 23.8625 5.25474 23.8506 5.21424 23.8736C4.2918 24.3869 3.377 24.9124 2.46984 25.4502C2.13511 25.6491 1.89246 25.7642 1.74191 25.7955C0.812206 25.9906 0.401809 24.7651 1.26961 24.2614C2.2807 23.6747 3.30975 23.0795 4.35676 22.476C4.42936 22.4347 4.42745 22.3968 4.35103 22.3624C3.37662 21.9309 2.38005 21.4903 1.36131 21.0405C0.424735 20.6274 0.969255 19.1036 2.15459 19.6176C3.48514 20.1944 4.81072 20.7838 6.13133 21.3859C6.1501 21.3944 6.17053 21.3983 6.19088 21.3973C6.21124 21.3963 6.23092 21.3904 6.24826 21.3801L8.61779 19.9998C8.66594 19.9722 8.66479 19.947 8.61435 19.924C7.14242 19.2707 5.67164 18.6213 4.202 17.9756C3.33535 17.5958 3.23332 16.7616 4.14812 16.3497C5.54286 15.7217 6.94907 15.0997 8.36673 14.4839C8.37497 14.4806 8.38208 14.4749 8.38724 14.4677C8.3924 14.4604 8.39539 14.4518 8.39587 14.4429C8.39635 14.434 8.3943 14.4252 8.38996 14.4174C8.38561 14.4096 8.37915 14.4033 8.37132 14.399L6.23909 13.1747C6.20852 13.1571 6.17718 13.1556 6.14508 13.1701C4.85046 13.7484 3.55698 14.3248 2.26465 14.8993C1.92303 15.0508 1.64332 15.1713 1.29024 14.9888C0.678081 14.6744 0.748011 13.8081 1.39227 13.5143C2.38731 13.0607 3.38655 12.6132 4.39 12.1718C4.39641 12.1688 4.40189 12.1641 4.40584 12.1582C4.40978 12.1523 4.41206 12.1455 4.41241 12.1384C4.41277 12.1313 4.41119 12.1243 4.40784 12.1181C4.4045 12.1118 4.39953 12.1066 4.39344 12.103C3.42439 11.5491 2.45915 10.993 1.49773 10.4346C1.20732 10.2663 1.01741 10.1259 0.927992 10.0134C0.334176 9.26646 1.26387 8.42422 2.11562 8.91419C3.14276 9.50474 4.17105 10.098 5.20048 10.6939C5.20654 10.6976 5.21351 10.6995 5.22061 10.6995C5.22771 10.6994 5.23464 10.6973 5.24062 10.6935C5.2466 10.6897 5.25138 10.6842 5.25442 10.6778C5.25746 10.6714 5.25863 10.6642 5.2578 10.6572C5.14163 9.61605 5.02967 8.57301 4.92192 7.52806C4.78664 6.20849 6.39499 6.04096 6.54631 7.40987C6.70145 8.81971 6.85354 10.2322 7.00257 11.6474C7.00502 11.673 7.01368 11.6977 7.02784 11.7194C7.042 11.7412 7.06123 11.7594 7.08395 11.7725L9.27122 13.0336C9.3079 13.055 9.32395 13.0446 9.31936 13.0026C9.15276 11.3801 8.98348 9.75795 8.81152 8.13621C8.75306 7.59117 9.21619 7.20218 9.71944 7.22398C9.90209 7.23163 10.131 7.33299 10.4061 7.52806C11.7305 8.46515 13.0573 9.40491 14.3863 10.3474C14.3918 10.3514 14.3983 10.3538 14.4051 10.3544C14.4118 10.355 14.4187 10.3536 14.4247 10.3505C14.4308 10.3474 14.4359 10.3427 14.4394 10.3369C14.443 10.331 14.4448 10.3243 14.4448 10.3175L14.4298 7.6692C14.4291 7.63324 14.4142 7.60456 14.3851 7.58314C13.1753 6.7279 11.9652 5.87037 10.7546 5.01054C9.54864 4.15454 10.5712 2.92562 11.7565 3.74146C12.6308 4.34273 13.5074 4.94705 14.3863 5.55444C14.3932 5.55929 14.4013 5.56214 14.4097 5.56269C14.4181 5.56324 14.4265 5.56146 14.4339 5.55754C14.4414 5.55363 14.4476 5.54774 14.452 5.54051C14.4563 5.53328 14.4586 5.525 14.4585 5.51657C14.4371 4.32704 14.4298 3.12719 14.4367 1.917C14.4448 0.662836 15.9901 0.668574 15.9946 1.90324C16 3.11571 16.0011 4.30524 15.9981 5.47182C15.9981 5.5552 16.0313 5.57203 16.0978 5.52231C16.9629 4.86826 17.8059 4.23525 18.6267 3.62327C19.5071 2.96578 20.4288 4.28421 19.4784 5.00136C18.3397 5.85966 17.1972 6.71758 16.0508 7.57511C16.0348 7.5872 16.0218 7.60292 16.0129 7.62104C16.0039 7.63915 15.9992 7.65917 15.9992 7.67952V10.1351C15.9992 10.1404 16.0007 10.1456 16.0035 10.1502C16.0063 10.1547 16.0103 10.1584 16.0151 10.1607C16.0198 10.1631 16.0252 10.1641 16.0305 10.1637C16.0358 10.1632 16.0408 10.1612 16.0451 10.158C17.2709 9.22935 18.4949 8.30374 19.7169 7.38119C20.3279 6.92106 21.0054 7.51773 20.9274 8.19473C20.7364 9.8463 20.5575 11.499 20.3909 13.1529C20.3871 13.195 20.4035 13.2053 20.4402 13.1839ZM14.3657 15.8058C14.3725 15.8096 14.3803 15.8116 14.3882 15.8115C14.3961 15.8113 14.4038 15.8091 14.4105 15.805C14.4173 15.801 14.4229 15.7952 14.4266 15.7883C14.4304 15.7813 14.4323 15.7735 14.4321 15.7656L14.4276 12.4002C14.4275 12.3929 14.4257 12.3858 14.4223 12.3794C14.4189 12.373 14.414 12.3675 14.4081 12.3634L10.789 9.8115C10.782 9.80663 10.7737 9.80388 10.7652 9.80357C10.7566 9.80326 10.7482 9.80541 10.7408 9.80975C10.7335 9.8141 10.7275 9.82046 10.7237 9.82809C10.7198 9.83572 10.7182 9.8443 10.7191 9.85281L11.1581 14.0479C11.1589 14.0551 11.1614 14.0619 11.1654 14.0679C11.1694 14.0739 11.1747 14.0789 11.1811 14.0823L14.3657 15.8058ZM15.9706 12.2452V15.7415C15.9706 15.8027 15.9969 15.8177 16.0497 15.7863C16.5143 15.5117 17.2503 15.0642 18.2576 14.4438C18.3821 14.3673 18.4842 14.2935 18.5636 14.2223C18.5927 14.1955 18.6099 14.1626 18.6152 14.1236L19.1746 9.82986C19.1756 9.82351 19.1745 9.81703 19.1717 9.81126C19.1689 9.80549 19.1645 9.80069 19.1589 9.79748C19.1534 9.79427 19.147 9.7928 19.1406 9.79325C19.1342 9.79371 19.1281 9.79606 19.1231 9.80002L16.0267 12.1317C15.9893 12.16 15.9706 12.1978 15.9706 12.2452ZM6.40531 17.1024C6.39847 17.1055 6.39265 17.1105 6.38858 17.1168C6.38451 17.1231 6.38234 17.1305 6.38234 17.138C6.38234 17.1455 6.38451 17.1529 6.38858 17.1592C6.39265 17.1655 6.39847 17.1705 6.40531 17.1736L10.4199 18.9349C10.4256 18.9374 10.4317 18.9385 10.4379 18.9381C10.4441 18.9377 10.4501 18.9358 10.4554 18.9326L13.2789 17.2941C13.2849 17.2906 13.2898 17.2857 13.2932 17.2798C13.2967 17.2738 13.2985 17.2671 13.2985 17.2602C13.2985 17.2533 13.2967 17.2466 13.2932 17.2406C13.2898 17.2347 13.2849 17.2298 13.2789 17.2264L10.1906 15.4466C10.1853 15.4435 10.1793 15.4416 10.1731 15.4412C10.1669 15.4408 10.1607 15.4419 10.1551 15.4444L6.40531 17.1024ZM16.6504 17.2252C16.6446 17.2284 16.6398 17.233 16.6365 17.2387C16.6332 17.2443 16.6314 17.2508 16.6314 17.2573C16.6314 17.2639 16.6332 17.2703 16.6365 17.276C16.6398 17.2816 16.6446 17.2863 16.6504 17.2895L19.3764 18.8661C19.3815 18.8689 19.3871 18.8704 19.3929 18.8706C19.3987 18.8708 19.4044 18.8697 19.4096 18.8672L23.266 17.1701C23.2723 17.1672 23.2777 17.1625 23.2814 17.1566C23.2852 17.1507 23.2872 17.1438 23.2872 17.1369C23.2872 17.1299 23.2852 17.123 23.2814 17.1171C23.2777 17.1112 23.2723 17.1065 23.266 17.1036L19.6641 15.5098C19.6589 15.5073 19.6532 15.5061 19.6474 15.5063C19.6416 15.5065 19.636 15.5081 19.6309 15.5109L16.6504 17.2252ZM14.4298 21.8919C14.4349 21.8882 14.439 21.8834 14.4418 21.8778C14.4446 21.8722 14.446 21.866 14.4459 21.8598L14.4333 18.7444C14.4333 18.7377 14.4315 18.7311 14.4282 18.7252C14.4249 18.7194 14.4201 18.7144 14.4144 18.711C14.4086 18.7075 14.402 18.7056 14.3953 18.7054C14.3886 18.7053 14.3819 18.7068 14.376 18.71L11.0389 20.5069C11.0332 20.5102 11.0285 20.5149 11.025 20.5205C11.0216 20.5261 11.0197 20.5325 11.0194 20.5391L10.7214 24.4289C10.7208 24.4364 10.7224 24.4438 10.7259 24.4504C10.7294 24.4569 10.7348 24.4624 10.7413 24.466C10.7478 24.4696 10.7552 24.4713 10.7627 24.4708C10.7701 24.4704 10.7773 24.4678 10.7833 24.4634L14.4298 21.8919ZM16.0497 22.1432C17.0928 22.9173 18.1307 23.6957 19.1632 24.4783C19.1671 24.4815 19.1718 24.4835 19.1768 24.4839C19.1818 24.4843 19.1869 24.4831 19.1913 24.4805C19.1957 24.4779 19.1994 24.474 19.2017 24.4693C19.204 24.4646 19.205 24.4594 19.2045 24.4542L18.6886 20.3704C18.6865 20.3536 18.6805 20.3374 18.6712 20.3231C18.6619 20.3088 18.6494 20.2967 18.6347 20.2878L16.0313 18.718C16.0254 18.7146 16.0187 18.7127 16.0118 18.7126C16.0049 18.7125 15.9982 18.7141 15.9923 18.7174C15.9863 18.7207 15.9814 18.7254 15.978 18.7312C15.9746 18.7369 15.9728 18.7435 15.9729 18.7502C15.9706 19.1334 15.9098 22.0399 16.0497 22.1432Z" fill="#00B3FF"/>
</svg>
