<svg width="183" height="182" viewBox="0 0 183 182" fill="none" xmlns="http://www.w3.org/2000/svg">
<path d="M0.5 0H178.5C180.709 0 182.5 1.79086 182.5 4V182H0.5V0Z" fill="#00B3FF"/>
<path fill-rule="evenodd" clip-rule="evenodd" d="M48.4815 62.0025C45.5859 64.8981 45.5859 69.5585 45.5859 78.8792V103.121C45.5859 112.442 45.5859 117.102 48.4815 119.997C51.3771 122.893 56.0375 122.893 65.3582 122.893H118.056C127.377 122.893 132.037 122.893 134.933 119.997C137.494 117.436 137.79 113.494 137.824 106.168L137.776 106.18C132.684 107.437 128.707 111.414 127.45 116.507L126.559 120.116C126.382 120.832 125.364 120.832 125.188 120.116L124.297 116.507C123.039 111.414 119.063 107.437 113.97 106.18L112.018 105.698H61.0631C58.6388 105.698 56.6736 103.733 56.6736 101.309C56.6736 98.8843 58.6388 96.9191 61.0631 96.9191H122.352C122.396 96.9191 122.441 96.9197 122.486 96.9211C123.303 95.6421 123.921 94.221 124.297 92.7003L124.49 91.9168H61.0631C58.6388 91.9168 56.6736 89.9516 56.6736 87.5273C56.6736 85.1031 58.6388 83.1378 61.0631 83.1378H117.783L125.804 81.1576C130.897 79.9004 134.874 75.924 136.131 70.8311L137.201 66.4978C136.783 64.5954 136.089 63.1584 134.933 62.0025C132.037 59.1069 127.377 59.1069 118.056 59.1069H65.3582C56.0375 59.1069 51.3771 59.1069 48.4815 62.0025ZM59.6494 74.2625C61.454 74.2625 62.917 72.7996 62.917 70.9949C62.917 69.1903 61.454 67.7273 59.6494 67.7273C57.8447 67.7273 56.3818 69.1903 56.3818 70.9949C56.3818 72.7996 57.8447 74.2625 59.6494 74.2625ZM73.5218 70.9949C73.5218 72.7996 72.0588 74.2625 70.2542 74.2625C68.4495 74.2625 66.9866 72.7996 66.9866 70.9949C66.9866 69.1903 68.4495 67.7273 70.2542 67.7273C72.0588 67.7273 73.5218 69.1903 73.5218 70.9949Z" fill="white"/>
<path d="M126.504 94.4718C126.341 93.8132 125.405 93.8132 125.242 94.4718C124.086 99.1574 120.427 102.816 115.742 103.973C115.083 104.135 115.083 105.072 115.742 105.234C120.427 106.391 124.086 110.049 125.242 114.735C125.405 115.394 126.341 115.394 126.504 114.735C127.661 110.049 131.319 106.391 136.005 105.234C136.663 105.072 136.663 104.135 136.005 103.973C131.319 102.816 127.661 99.1574 126.504 94.4718Z" fill="white"/>
<path d="M145.71 98.8268C145.802 98.4512 146.336 98.4512 146.429 98.8268C147.088 101.498 149.174 103.584 151.846 104.244C152.221 104.336 152.221 104.87 151.846 104.963C149.174 105.623 147.088 107.708 146.429 110.38C146.336 110.756 145.802 110.756 145.71 110.38C145.05 107.708 142.964 105.623 140.293 104.963C139.917 104.87 139.917 104.336 140.293 104.244C142.964 103.584 145.05 101.498 145.71 98.8268Z" fill="white"/>
<path d="M139.521 69.7503C139.345 69.0344 138.327 69.0344 138.15 69.7503L137.536 72.2368C136.279 77.3296 132.303 81.3061 127.21 82.5633L124.723 83.1772C124.008 83.3539 124.008 84.3716 124.723 84.5483L127.21 85.1621C132.303 86.4194 136.279 90.3958 137.536 95.4887L138.15 97.9752C138.327 98.6911 139.345 98.6911 139.521 97.9752L140.135 95.4887C141.393 90.3958 145.369 86.4194 150.462 85.1621L152.948 84.5483C153.664 84.3716 153.664 83.3539 152.948 83.1772L150.462 82.5633C145.369 81.3061 141.393 77.3296 140.135 72.2368L139.521 69.7503Z" fill="white"/>
</svg>
