<svg width="183" height="182" viewBox="0 0 183 182" fill="none" xmlns="http://www.w3.org/2000/svg">
<path d="M0.5 0H178.5C180.709 0 182.5 1.79086 182.5 4V182H0.5V0Z" fill="#00B3FF"/>
<path d="M145.018 44.3225C144.834 43.5784 143.776 43.5784 143.592 44.3225L142.954 46.907C141.647 52.2006 137.514 56.3337 132.221 57.6405L129.636 58.2785C128.892 58.4622 128.892 59.52 129.636 59.7037L132.221 60.3418C137.514 61.6486 141.647 65.7817 142.954 71.0753L143.592 73.6598C143.776 74.4039 144.834 74.4039 145.018 73.6598L145.656 71.0753C146.962 65.7817 151.095 61.6486 156.389 60.3417L158.974 59.7037C159.718 59.52 159.718 58.4622 158.974 58.2785L156.389 57.6405C151.095 56.3337 146.962 52.2006 145.656 46.907L145.018 44.3225Z" fill="white"/>
<path fill-rule="evenodd" clip-rule="evenodd" d="M99.983 45.3123C99.4387 45.3123 98.9974 45.7952 98.9974 46.3908V62.0758H95.7461V65.1911H86.1328V62.0758H82.8816V46.4721C82.8816 45.8316 82.4403 45.3123 81.896 45.3123H56.115C55.5707 45.3123 55.1294 45.8316 55.1294 46.4721V62.0758H51.8781V65.1911H50.5744C46.3851 65.1911 44.2904 65.1911 42.989 66.4925C41.6875 67.794 41.6875 69.8886 41.6875 74.078V129.349C41.6875 133.538 41.6875 135.633 42.989 136.934C44.2904 138.236 46.3851 138.236 50.5744 138.236H133.874C138.064 138.236 140.158 138.236 141.46 136.934C142.761 135.633 142.761 133.538 142.761 129.349V87.061L142.695 87.0773C136.286 88.6595 131.282 93.6638 129.699 100.073L128.578 104.616C128.356 105.516 127.075 105.516 126.852 104.616L125.731 100.073C124.149 93.6638 119.145 88.6595 112.735 87.0773L108.193 85.9559C107.292 85.7335 107.292 84.4527 108.193 84.2303L112.735 83.1089C119.145 81.5267 124.149 76.5224 125.731 70.1131L126.75 65.987L126.75 46.3908C126.75 45.7952 126.308 45.3123 125.764 45.3123H99.983ZM67.4444 60.5947C67.8635 60.1756 68.543 60.1756 68.9621 60.5947L81.0496 72.6823C81.7257 73.3584 81.2469 74.5143 80.2908 74.5143H73.5691C73.5691 80.0295 76.685 85.0713 81.6178 87.538L101.196 97.3282C111.012 102.237 117.212 112.269 117.212 123.244V124.71C117.212 125.08 117.174 125.442 117.103 125.791C116.602 128.236 114.439 130.075 111.846 130.075L68.6283 130.075C65.6995 130.075 63.3188 127.729 63.2634 124.813L63.2626 124.759L63.2624 124.709V123.244C63.2624 113.579 68.0709 104.645 75.9227 99.2976L87.1095 105.411L84.0783 106.927C79.086 109.423 75.5791 114.025 74.4153 119.344H106.059C104.895 114.025 101.388 109.423 96.396 106.927L76.818 97.1365C68.2498 92.8519 62.8375 84.0942 62.8374 74.5143H56.1156C55.1596 74.5143 54.6807 73.3584 55.3568 72.6823L67.4444 60.5947ZM123.216 70.7808L113.03 60.5947C112.611 60.1756 111.931 60.1756 111.512 60.5947L99.4245 72.6823C98.7485 73.3584 99.2273 74.5143 100.183 74.5143H106.905C106.905 80.0295 103.789 85.0713 98.8564 87.538L93.2665 90.3333L104.702 96.5826C107.858 94.8158 110.545 92.4247 112.638 89.6096C111.946 89.3305 111.251 89.0648 110.561 88.801L110.56 88.8006C109.384 88.3511 108.22 87.9064 107.101 87.4074C104.618 86.301 104.747 83.2774 107.377 82.5936C108.225 82.3732 109.104 82.1833 109.995 81.9909C112.402 81.4707 114.896 80.9318 117.096 79.7216C117.452 78.0294 117.637 76.2859 117.637 74.5143H121.963C122.472 73.4489 122.896 72.2152 123.216 70.7808Z" fill="white"/>
<path d="M128.509 72.3427C128.304 71.5138 127.126 71.5138 126.921 72.3427C125.466 78.2395 120.861 82.8436 114.965 84.2993C114.136 84.504 114.136 85.6823 114.965 85.8869C120.861 87.3427 125.466 91.9468 126.921 97.8436C127.126 98.6725 128.304 98.6725 128.509 97.8436C129.965 91.9468 134.569 87.3427 140.466 85.8869C141.295 85.6823 141.295 84.504 140.466 84.2993C134.569 82.8436 129.965 78.2395 128.509 72.3427Z" fill="white"/>
<path d="M153.685 77.1846C153.785 76.7803 154.36 76.7803 154.46 77.1846C155.17 80.0608 157.415 82.3065 160.292 83.0166C160.696 83.1164 160.696 83.6911 160.292 83.7909C157.415 84.501 155.17 86.7467 154.46 89.6229C154.36 90.0272 153.785 90.0272 153.685 89.6229C152.975 86.7467 150.73 84.501 147.853 83.7909C147.449 83.6911 147.449 83.1164 147.853 83.0166C150.73 82.3065 152.975 80.0608 153.685 77.1846Z" fill="white"/>
</svg>
