<svg width="183" height="182" viewBox="0 0 183 182" fill="none" xmlns="http://www.w3.org/2000/svg">
<path d="M0.5 0H178.5C180.709 0 182.5 1.79086 182.5 4V182H0.5V0Z" fill="#00B3FF"/>
<path d="M46.9169 39.6002C45.9199 40.5971 45.9199 42.2017 45.9199 45.4107V136.589C45.9199 139.798 45.9199 141.403 46.9169 142.4C47.9138 143.397 49.5183 143.397 52.7274 143.397H128.036C131.246 143.397 132.85 143.397 133.847 142.4C134.844 141.403 134.844 139.798 134.844 136.589L134.793 84.9752C129.922 84.9752 124.838 90.5243 124.838 94.9302L124.155 100.58C124.155 104.716 120.803 108.069 116.667 108.069H64.0969C59.9613 108.069 56.6087 104.716 56.6087 100.58V69.2579C56.6087 65.1223 59.9613 60.8288 64.0969 60.8288H115.519C128.204 60.8288 133.949 52.8561 133.949 43.3347C133.949 39.0379 132.125 38.6033 128.036 38.6033H52.7274C49.5183 38.6033 47.9138 38.6033 46.9169 39.6002Z" fill="white"/>
<path d="M66.5506 75.0723C68.0544 75.0723 69.2736 76.2914 69.2736 77.7953V90.2007C69.2736 90.6421 68.9157 90.9999 68.4744 90.9999H64.6268C64.1854 90.9999 63.8276 90.6421 63.8276 90.2007V77.7953C63.8276 76.2914 65.0467 75.0723 66.5506 75.0723Z" fill="white"/>
<path d="M123.927 72.6958C123.77 72.0609 122.867 72.0609 122.71 72.6958C121.595 77.2129 118.069 80.7397 113.551 81.8548C112.917 82.0116 112.917 82.9142 113.551 83.0709C118.069 84.186 121.595 87.7129 122.71 92.2299C122.867 92.8648 123.77 92.8648 123.927 92.2299C125.042 87.7129 128.569 84.186 133.086 83.0709C133.72 82.9142 133.72 82.0116 133.086 81.8548C128.569 80.7397 125.042 77.2129 123.927 72.6958Z" fill="white"/>
<path d="M142.441 76.8941C142.531 76.5321 143.045 76.5321 143.135 76.8941C143.771 79.4696 145.781 81.4804 148.357 82.1162C148.719 82.2056 148.719 82.7202 148.357 82.8096C145.781 83.4454 143.771 85.4563 143.135 88.0317C143.045 88.3937 142.531 88.3937 142.441 88.0317C141.806 85.4563 139.795 83.4454 137.219 82.8096C136.857 82.7202 136.857 82.2056 137.219 82.1162C139.795 81.4804 141.806 79.4696 142.441 76.8941Z" fill="white"/>
<path d="M136.476 48.8636C136.305 48.1735 135.324 48.1735 135.154 48.8636L134.562 51.2607C133.35 56.1703 129.517 60.0037 124.607 61.2157L122.21 61.8075C121.52 61.9778 121.52 62.9589 122.21 63.1293L124.607 63.721C129.517 64.933 133.35 68.7664 134.562 73.676L135.154 76.0731C135.324 76.7632 136.305 76.7632 136.476 76.0731L137.068 73.676C138.28 68.7664 142.113 64.933 147.023 63.721L149.42 63.1293C150.11 62.9589 150.11 61.9778 149.42 61.8075L147.023 61.2157C142.113 60.0037 138.28 56.1703 137.068 51.2607L136.476 48.8636Z" fill="white"/>
</svg>
