<svg width="183" height="183" viewBox="0 0 183 183" fill="none" xmlns="http://www.w3.org/2000/svg">
<path d="M0.29834 0.19458H178.298C180.507 0.19458 182.298 1.98544 182.298 4.19458V182.195H0.29834V0.19458Z" fill="#00B3FF"/>
<path d="M142.501 51.1245V59.1999C138.934 57.5672 135.976 54.8635 134.027 51.4906V46.3C134.027 44.7589 132.778 43.5096 131.237 43.5096H64.0378C62.4967 43.5096 61.2474 44.7589 61.2474 46.3V150.789C61.2474 152.33 62.4967 153.58 64.0378 153.58H131.237C132.778 153.58 134.027 152.33 134.027 150.789V71.0606C135.976 67.6877 138.934 64.984 142.501 63.3513V158.256C142.501 159.797 141.252 161.046 139.711 161.046H55.7865C54.2454 161.046 52.9961 159.797 52.9961 158.256V153.579H49.5081V150.616C34.4536 150.616 22.2495 138.411 22.2495 123.357V90.8457H19.6777V87.3577H22.2495V46.9976H19.6777V43.5096H22.2495V21.3423H45.0098V43.5096H47.5818V46.9976H45.0098L45.0098 87.3577H47.5818V90.8457H45.0098V122.834C45.0098 124.376 46.2591 125.625 47.8002 125.625H49.5081V122.661H52.9961V38.0568C52.9961 36.5157 54.2454 35.2664 55.7865 35.2664H72.4166V31.7784H74.9883V21.3423H97.7486V31.7784H100.321V35.2664H117.272V31.7784H118.531V21.3423H129.965V31.7784H131.224V33.4853C130.867 33.6004 130.505 33.7036 130.138 33.7942L127.32 34.4897C126.509 34.69 126.509 35.8431 127.32 36.0433L130.138 36.7388C135.908 38.1634 140.414 42.6689 141.838 48.4393L142.501 51.1245Z" fill="white"/>
<path d="M128.733 90.6046V71.9627C127.68 69.8864 126.257 68.0349 124.547 66.4929V89.2094H70.9498V54.8143H124.547V56.0583C125.949 54.7936 127.159 53.3205 128.13 51.686C127.619 51.0418 126.829 50.6287 125.943 50.6287H69.5546C68.0135 50.6287 66.7642 51.878 66.7642 53.4191V90.6046C66.7642 92.1457 68.0135 93.395 69.5546 93.395H125.943C127.484 93.395 128.733 92.1457 128.733 90.6046Z" fill="white"/>
<path d="M82.7835 61.2758C82.7835 60.4098 83.4856 59.7077 84.3516 59.7077H111.146C112.012 59.7077 112.714 60.4098 112.714 61.2758C112.714 62.1418 112.012 62.8439 111.146 62.8439H84.3516C83.4856 62.8439 82.7835 62.1418 82.7835 61.2758Z" fill="white"/>
<path d="M95.2918 139.802C95.4967 139.969 95.7231 140.124 95.9731 140.264C96.5754 140.602 97.2309 140.761 97.8891 140.728C97.9706 140.724 98.0518 140.717 98.1327 140.707C98.4772 140.665 98.8159 140.57 99.1416 140.426C99.3576 140.33 99.5678 140.212 99.7702 140.073C100.143 139.817 100.478 139.498 100.775 139.129C100.992 138.859 101.188 138.563 101.363 138.247C101.631 137.763 101.849 137.232 102.016 136.676L102.025 136.645C102.228 135.962 102.353 135.241 102.399 134.521C102.409 134.365 102.415 134.21 102.418 134.055L102.418 134.004L102.419 133.968C102.419 133.942 102.419 133.917 102.419 133.892L102.419 133.885C102.418 133.521 102.397 133.161 102.354 132.808C102.263 132.066 102.079 131.361 101.796 130.741C101.615 130.345 101.394 129.983 101.131 129.67C101.081 130.214 100.566 130.525 100.14 130.783C99.9578 130.893 99.7919 130.993 99.6849 131.098L99.6255 131.156C99.6223 131.139 99.619 131.123 99.6156 131.106C99.6115 131.085 99.6072 131.064 99.6029 131.044L99.5946 131.006L99.5852 130.963C99.47 130.456 99.2846 129.948 99.0523 129.477C98.9698 129.31 98.8815 129.147 98.7882 128.991C98.6808 128.811 98.5669 128.64 98.4481 128.48C98.0829 127.986 97.6716 127.597 97.2603 127.384C97.2786 127.51 97.2912 127.632 97.2986 127.75C97.3181 128.062 97.3014 128.349 97.2566 128.617L97.2558 128.622L97.2501 128.654L97.2445 128.685L97.2374 128.722C97.1974 128.923 97.1415 129.113 97.0734 129.293C97.0452 129.368 97.0149 129.441 96.9828 129.513C96.9279 129.635 96.8678 129.753 96.8036 129.867C96.5732 130.278 96.2914 130.641 96.02 130.992L96.0167 130.996C95.7612 131.326 95.515 131.644 95.3299 131.978C95.1824 132.244 95.0736 132.52 95.0297 132.821C95.0097 132.958 95.0031 133.101 95.0125 133.249C95.0182 133.339 95.0297 133.431 95.0476 133.526C94.6661 133.574 94.2083 133.187 93.7887 132.607C93.7434 132.87 93.7012 133.138 93.6644 133.41C93.6471 133.538 93.631 133.667 93.6164 133.796C93.5874 134.052 93.564 134.31 93.548 134.569C93.4892 135.526 93.5326 136.492 93.7729 137.378C93.9677 138.096 94.2919 138.762 94.796 139.328C94.9451 139.495 95.1099 139.654 95.2918 139.802Z" fill="white"/>
<path fill-rule="evenodd" clip-rule="evenodd" d="M128.733 102.988C128.733 101.447 127.484 100.198 125.943 100.198H69.5546C68.0135 100.198 66.7642 101.447 66.7642 102.988V144.208C66.7642 145.749 68.0135 146.999 69.5546 146.999H125.943C127.484 146.999 128.733 145.749 128.733 144.208V102.988ZM92.5078 117.863C93.2483 117.108 94.0031 116.324 94.6463 115.457C95.8867 113.784 96.7119 111.802 96.2177 109.125C97.8119 109.775 99.4062 111.095 100.727 112.74C100.786 112.813 100.844 112.887 100.901 112.962L100.916 112.98C101.005 113.096 101.093 113.213 101.179 113.331C101.488 113.754 101.778 114.194 102.045 114.646C102.653 115.674 103.144 116.765 103.47 117.858L103.474 117.871C103.531 118.064 103.584 118.258 103.631 118.451L103.72 118.381L103.817 118.307C104.937 117.442 106.872 115.948 107.098 114.027C107.94 114.821 108.614 115.892 109.151 117.113C109.662 118.274 110.049 119.572 110.338 120.896C111.254 125.093 111.189 129.553 110.987 130.791C110.654 132.828 109.859 134.762 108.662 136.445C108.591 136.546 108.517 136.646 108.443 136.745C107.277 138.292 105.791 139.572 104.084 140.496C103.077 141.041 102.009 141.454 100.905 141.728C100.018 141.948 99.108 142.078 98.1886 142.114C98.1591 142.115 98.1296 142.117 98.1001 142.118L98.0409 142.119C98.0137 142.12 97.9865 142.121 97.9593 142.121C97.7765 142.126 97.5937 142.126 97.4112 142.123C96.699 142.11 95.9901 142.041 95.2912 141.917C95.217 141.904 95.1428 141.89 95.0688 141.876C94.0794 141.683 93.1114 141.379 92.1835 140.969C90.3364 140.151 88.6966 138.93 87.3845 137.395L87.3461 137.35L87.3196 137.319L87.2982 137.293C85.972 135.711 85.026 133.846 84.5329 131.841C84.3887 131.255 84.3599 130.345 84.4025 129.302C84.4523 128.08 84.5997 126.675 84.7739 125.388C84.9599 124.014 85.1765 122.775 85.3376 122.038C86.4971 123.303 87.7496 124.196 88.8492 124.308C88.9968 124.323 89.1416 124.324 89.2831 124.309C89.1835 123.893 89.147 123.497 89.164 123.118C89.1675 123.037 89.1735 122.958 89.1818 122.879C89.2601 122.134 89.5439 121.451 89.9565 120.798C90.3843 120.121 90.9506 119.476 91.5699 118.826C91.8163 118.567 92.0711 118.308 92.3289 118.046L92.3295 118.045L92.5078 117.863Z" fill="white"/>
<path d="M144.561 23.5772C144.414 22.9798 143.564 22.9798 143.417 23.5772L142.905 25.6523C141.855 29.9024 138.537 33.2208 134.287 34.27L132.212 34.7822C131.614 34.9297 131.614 35.779 132.212 35.9265L134.287 36.4387C138.537 37.488 141.855 40.8064 142.905 45.0565L143.417 47.1315C143.564 47.7289 144.414 47.7289 144.561 47.1315L145.073 45.0564C146.123 40.8064 149.441 37.488 153.691 36.4387L155.766 35.9265C156.364 35.779 156.364 34.9297 155.766 34.7822L153.691 34.27C149.441 33.2208 146.123 29.9024 145.073 25.6523L144.561 23.5772Z" fill="white"/>
<path d="M131.773 51.0373C131.609 50.3718 130.663 50.3718 130.498 51.0373C129.33 55.7717 125.633 59.4683 120.899 60.637C120.233 60.8013 120.233 61.7474 120.899 61.9117C125.633 63.0805 129.33 66.777 130.498 71.5115C130.663 72.177 131.609 72.177 131.773 71.5115C132.942 66.777 136.638 63.0805 141.373 61.9117C142.038 61.7474 142.038 60.8013 141.373 60.637C136.638 59.4683 132.942 55.7717 131.773 51.0373Z" fill="white"/>
<path d="M151.987 54.9247C152.067 54.6001 152.528 54.6001 152.608 54.9247C153.178 57.234 154.981 59.037 157.291 59.6071C157.615 59.6872 157.615 60.1487 157.291 60.2288C154.981 60.7989 153.178 62.602 152.608 64.9112C152.528 65.2358 152.067 65.2358 151.987 64.9112C151.417 62.602 149.614 60.7989 147.304 60.2288C146.98 60.1487 146.98 59.6872 147.304 59.6071C149.614 59.037 151.417 57.234 151.987 54.9247Z" fill="white"/>
</svg>
