<svg width="183" height="182" viewBox="0 0 183 182" fill="none" xmlns="http://www.w3.org/2000/svg">
<path d="M0.5 0H178.5C180.709 0 182.5 1.79086 182.5 4V182H0.5V0Z" fill="#00B3FF"/>
<path d="M127.485 55.9193C128.296 56.7305 128.929 57.6506 129.422 58.7191C127.642 62.6948 124.167 65.721 119.894 66.8985C118.09 64.5276 115.239 62.9971 112.03 62.9971H73.3953C67.941 62.9971 63.5193 67.4187 63.5193 72.8731V74.857H53.9061C53.9246 64.6668 54.1754 59.3301 57.5861 55.9193C61.2676 52.2378 67.1929 52.2378 79.0435 52.2378H106.028C117.878 52.2378 123.804 52.2378 127.485 55.9193Z" fill="white"/>
<path d="M121.906 110.276V101.783C123.568 97.7469 126.954 94.6281 131.167 93.324V104.623C131.167 116.474 131.167 122.399 127.485 126.081C123.804 129.762 117.878 129.762 106.028 129.762H79.0434C67.1929 129.762 61.2676 129.762 57.5861 126.081C53.9951 122.49 53.9069 116.764 53.9047 105.486H58.7481C60.8196 105.486 62.618 104.317 63.5193 102.602V110.276C63.5193 115.731 67.9409 120.152 73.3953 120.152H112.03C117.484 120.152 121.906 115.731 121.906 110.276Z" fill="white"/>
<path d="M29.9734 109.421C31.6186 109.421 32.9478 110.75 32.9478 112.395C32.9478 114.041 31.6186 115.37 29.9734 115.37H26.999C22.0726 115.37 18.0758 111.373 18.0758 106.447C18.0758 101.52 22.0726 97.5234 26.999 97.5234H56.7431C58.3883 97.5234 59.7175 98.8526 59.7175 100.498C59.7175 102.143 58.3883 103.472 56.7431 103.472L26.999 103.472C25.3538 103.472 24.0246 104.801 24.0246 106.447C24.0246 108.092 25.3538 109.421 26.999 109.421H29.9734Z" fill="white"/>
<path d="M24.0246 76.7026C25.6698 76.7026 26.999 78.0318 26.999 79.677C26.999 81.3222 25.6698 82.6514 24.0246 82.6514H21.0502C19.405 82.6514 18.0758 83.9806 18.0758 85.6258C18.0758 87.271 19.405 88.6002 21.0502 88.6002L52.184 88.6002C53.8292 88.6002 55.1584 89.9294 55.1584 91.5746C55.1584 93.2198 53.8292 94.549 52.184 94.549L21.0502 94.549C16.1238 94.549 12.127 90.5522 12.127 85.6258C12.127 80.6994 16.1238 76.7026 21.0502 76.7026H24.0246Z" fill="white"/>
<path d="M44.8454 67.7793H47.8199C49.4651 67.7793 50.7943 69.1085 50.7943 70.7537C50.7943 72.399 49.4651 73.7282 47.8199 73.7282H44.8454C43.2002 73.7282 41.871 75.0573 41.871 76.7026C41.871 78.3478 43.2002 79.677 44.8454 79.677L63.0557 79.677C64.7009 79.677 66.0301 81.0062 66.0301 82.6514C66.0301 84.2966 64.7009 85.6258 63.0557 85.6258L44.8454 85.6258C39.9191 85.6258 35.9222 81.6289 35.9222 76.7026C35.9222 71.7762 39.9191 67.7793 44.8454 67.7793Z" fill="white"/>
<path d="M118.923 80.8842C119.093 80.1973 120.069 80.1973 120.239 80.8842C121.445 85.7706 125.26 89.5859 130.147 90.7922C130.833 90.9618 130.833 91.9382 130.147 92.1078C125.26 93.3141 121.445 97.1293 120.239 102.016C120.069 102.703 119.093 102.703 118.923 102.016C117.717 97.1293 113.901 93.3141 109.015 92.1078C108.328 91.9382 108.328 90.9618 109.015 90.7922C113.901 89.5859 117.717 85.7706 118.923 80.8842Z" fill="white"/>
<path d="M141.018 85.4257C140.921 85.0341 140.364 85.0341 140.268 85.4257C139.58 88.2118 137.404 90.3871 134.618 91.0749C134.227 91.1716 134.227 91.7283 134.618 91.825C137.404 92.5128 139.58 94.6881 140.268 97.4742C140.364 97.8658 140.921 97.8658 141.018 97.4742C141.705 94.6881 143.881 92.5128 146.667 91.825C147.058 91.7283 147.058 91.1716 146.667 91.0749C143.881 90.3871 141.705 88.2118 141.018 85.4257Z" fill="white"/>
<path d="M132.384 55.1027C132.568 54.3562 133.63 54.3562 133.814 55.1027L134.454 57.6959C135.765 63.007 139.912 67.1539 145.223 68.465L147.816 69.1052C148.563 69.2895 148.563 70.3508 147.816 70.5351L145.223 71.1752C139.912 72.4864 135.765 76.6332 134.454 81.9444L133.814 84.5375C133.63 85.2841 132.568 85.2841 132.384 84.5375L131.744 81.9444C130.433 76.6332 126.286 72.4864 120.975 71.1752L118.382 70.5351C117.635 70.3508 117.635 69.2895 118.382 69.1052L120.975 68.465C126.286 67.1539 130.433 63.007 131.744 57.6959L132.384 55.1027Z" fill="white"/>
<path fill-rule="evenodd" clip-rule="evenodd" d="M114.683 83.4623C115.009 83.6575 115.322 83.8594 115.622 84.0678C113.613 86.8806 110.639 88.9488 107.168 89.8057L103.403 90.735C102.898 90.8597 102.735 91.3858 102.913 91.7702C102.91 91.8348 102.906 91.8993 102.901 91.9638C102.987 92.2639 103.068 92.5682 103.145 92.8762C103.712 95.1632 104.004 97.6144 104.004 100.09C104.004 102.565 103.712 105.016 103.145 107.303C102.577 109.59 101.746 111.668 100.697 113.419C99.6486 115.169 98.4037 116.558 97.0338 117.505C95.6638 118.452 94.1954 118.94 92.7125 118.94L92.7125 101.657C92.5402 101.657 92.3681 101.65 92.1964 101.637C91.8964 101.723 91.5924 101.804 91.2846 101.881C88.9976 102.448 86.5464 102.74 84.071 102.74C81.5955 102.74 79.1443 102.448 76.8573 101.881C74.5703 101.313 72.4923 100.481 70.7419 99.4324C68.9915 98.3838 67.6031 97.1388 66.6558 95.7687C65.7084 94.3985 65.2209 92.93 65.2209 91.4469L82.504 91.4468C82.504 91.275 82.5105 91.1035 82.5236 90.9322C82.4377 90.6322 82.3566 90.3282 82.2802 90.0203C81.7127 87.7333 81.4206 85.2821 81.4206 82.8067C81.4206 80.3313 81.7127 77.8801 82.2802 75.5931C82.8476 73.3061 83.6794 71.2281 84.7279 69.4777C85.7765 67.7273 87.0213 66.3388 88.3913 65.3915C89.7613 64.4442 91.2296 63.9566 92.7125 63.9566L92.7125 81.2397C92.8834 81.2397 93.054 81.2462 93.2243 81.2591C93.5257 81.1728 93.8312 81.0912 94.1405 81.0145C96.4275 80.447 98.8786 80.1549 101.354 80.1549C103.83 80.1549 106.281 80.447 108.568 81.0145C110.855 81.582 112.933 82.4137 114.683 83.4623ZM92.7125 95.0479C94.7013 95.0479 96.3135 93.4356 96.3135 91.4468C96.3135 89.458 94.7013 87.8457 92.7125 87.8457C90.7236 87.8457 89.1114 89.458 89.1114 91.4468C89.1114 93.4356 90.7236 95.0479 92.7125 95.0479Z" fill="white"/>
</svg>
