<svg width="32" height="33" viewBox="0 0 32 33" fill="none" xmlns="http://www.w3.org/2000/svg">
<path d="M10.3063 1.83506C9.82507 0.672554 8.55631 0.0538002 7.3438 0.385052L1.84376 1.88506C0.756255 2.18506 0 3.17257 0 4.29758C0 19.7602 12.5376 32.2978 28.0002 32.2978C29.1252 32.2978 30.1127 31.5415 30.4127 30.454L31.9127 24.954C32.244 23.7415 31.6252 22.4727 30.4627 21.9914L24.4627 19.4914C23.4439 19.0664 22.2626 19.3602 21.5689 20.2164L19.0439 23.2977C14.6438 21.2164 11.0813 17.6539 9.00006 13.2539L12.0813 10.7351C12.9376 10.0351 13.2313 8.86011 12.8063 7.84135L10.3063 1.84131V1.83506Z" fill="#00B3FF"/>
</svg>
