<svg width="32" height="33" viewBox="0 0 32 33" fill="none" xmlns="http://www.w3.org/2000/svg">
<g clip-path="url(#clip0_520_17485)">
<path d="M17.4617 31.5394C20.6252 27.5269 27.8402 17.8019 27.8402 12.3394C27.8402 5.71435 22.5368 0.339355 16.0002 0.339355C9.46349 0.339355 4.16016 5.71435 4.16016 12.3394C4.16016 17.8019 11.3752 27.5269 14.5387 31.5394C15.2972 32.4956 16.7032 32.4956 17.4617 31.5394ZM16.0002 8.33935C17.0469 8.33935 18.0507 8.76078 18.7909 9.51093C19.531 10.2611 19.9468 11.2785 19.9468 12.3394C19.9468 13.4002 19.531 14.4176 18.7909 15.1678C18.0507 15.9179 17.0469 16.3394 16.0002 16.3394C14.9534 16.3394 13.9496 15.9179 13.2094 15.1678C12.4693 14.4176 12.0535 13.4002 12.0535 12.3394C12.0535 11.2785 12.4693 10.2611 13.2094 9.51093C13.9496 8.76078 14.9534 8.33935 16.0002 8.33935Z" fill="#00B3FF"/>
</g>
<defs>
<clipPath id="clip0_520_17485">
<rect width="32" height="32" fill="white" transform="translate(0 0.297852)"/>
</clipPath>
</defs>
</svg>
