<svg width="32" height="33" viewBox="0 0 32 33" fill="none" xmlns="http://www.w3.org/2000/svg">
<path d="M3 4.29785C1.34375 4.29785 0 5.6416 0 7.29785C0 8.2416 0.44375 9.1291 1.2 9.69785L14.8 19.8979C15.5125 20.4291 16.4875 20.4291 17.2 19.8979L30.8 9.69785C31.5562 9.1291 32 8.2416 32 7.29785C32 5.6416 30.6562 4.29785 29 4.29785H3ZM0 11.2979V24.2979C0 26.5041 1.79375 28.2979 4 28.2979H28C30.2062 28.2979 32 26.5041 32 24.2979V11.2979L18.4 21.4979C16.975 22.5666 15.025 22.5666 13.6 21.4979L0 11.2979Z" fill="#00B3FF"/>
</svg>
