<svg width="107" height="77" viewBox="0 0 107 77" fill="none" xmlns="http://www.w3.org/2000/svg">
<path d="M61.7147 8.87672L63.6988 7.87276C63.7246 7.85932 63.7393 7.83943 63.743 7.81308C63.8609 6.83842 63.9793 5.86564 64.0984 4.89474C64.1518 4.45606 64.3129 4.07383 64.8939 4.16011C65.2898 4.21978 65.4623 4.44826 65.4114 4.84555C65.315 5.59765 65.2287 6.35055 65.1526 7.10426C65.1496 7.13437 65.1631 7.14163 65.1931 7.12603C66.0095 6.70563 66.828 6.29088 67.6487 5.88176C67.8328 5.79037 67.9857 5.74629 68.1072 5.74952C68.6053 5.76403 68.9128 6.23174 68.6523 6.59946C68.5848 6.69515 68.4399 6.79918 68.2177 6.91153C67.4161 7.31742 66.6163 7.7225 65.8183 8.12677C65.8147 8.12859 65.8118 8.13125 65.8099 8.13444C65.8079 8.13764 65.8071 8.14125 65.8074 8.14486C65.8076 8.14848 65.8091 8.15195 65.8115 8.15488C65.8139 8.15781 65.8172 8.16008 65.8211 8.16145C66.5982 8.45659 67.3685 8.75415 68.1321 9.05413C69.1163 9.44039 68.5805 10.4806 67.6524 10.121C66.6028 9.71457 65.5409 9.30357 64.4667 8.88801C64.4121 8.86651 64.359 8.86866 64.3074 8.89446L62.5663 9.76698C62.516 9.79171 62.5172 9.81456 62.57 9.83553C63.6651 10.2661 64.7607 10.6833 65.857 11.0871C66.5153 11.3298 66.4674 11.9741 65.8257 12.2233C64.6772 12.6673 63.5248 13.1116 62.3684 13.5562C62.3608 13.5592 62.3542 13.5639 62.3496 13.5699C62.3449 13.5759 62.3422 13.583 62.3418 13.5903C62.3414 13.5976 62.3434 13.605 62.3474 13.6115C62.3514 13.618 62.3574 13.6234 62.3647 13.6272L64.3387 14.6296C64.3657 14.643 64.3937 14.6443 64.4225 14.6336C65.5022 14.2116 66.5828 13.7925 67.6644 13.3764C68.5574 13.0321 69.1034 14.057 68.121 14.4441C67.3617 14.743 66.5991 15.04 65.833 15.3351C65.8277 15.3373 65.8231 15.3407 65.8198 15.345C65.8165 15.3493 65.8146 15.3543 65.8144 15.3594C65.8141 15.3646 65.8154 15.3697 65.8182 15.3742C65.821 15.3788 65.8252 15.3825 65.8303 15.3851C66.6264 15.7814 67.4222 16.1827 68.2177 16.5891C68.4497 16.7074 68.601 16.8197 68.6716 16.9262C68.8935 17.2624 68.5952 17.7971 68.1183 17.7777C67.9869 17.7723 67.8104 17.7143 67.5889 17.6035C66.7934 17.2068 65.9991 16.8049 65.206 16.398C65.1997 16.3948 65.1924 16.3932 65.1851 16.3933C65.1777 16.3935 65.1706 16.3954 65.1645 16.3988C65.1584 16.4022 65.1535 16.4071 65.1504 16.4128C65.1474 16.4185 65.1462 16.4248 65.1471 16.431C65.2404 17.1579 65.3297 17.8887 65.415 18.6236C65.4377 18.8193 65.4212 18.968 65.3653 19.0696C65.1775 19.4115 64.5652 19.4631 64.2982 19.1825C64.2055 19.0857 64.146 18.9241 64.1196 18.6978C64.0023 17.699 63.8814 16.6998 63.7568 15.7004C63.7531 15.6698 63.7363 15.647 63.7062 15.6319L61.7773 14.6505C61.7702 14.6471 61.7621 14.6453 61.754 14.6456C61.7459 14.6458 61.738 14.6479 61.7312 14.6518C61.7245 14.6556 61.7191 14.661 61.7157 14.6673C61.7123 14.6736 61.711 14.6807 61.7119 14.6876C61.8476 15.7488 61.9817 16.8146 62.1143 17.885C62.1388 18.0833 62.1262 18.2312 62.0765 18.3285C61.9218 18.6341 61.4642 18.7357 61.1475 18.5285C60.1611 17.8817 59.1756 17.2339 58.1911 16.5851C58.1872 16.5824 58.1825 16.5807 58.1775 16.5803C58.1726 16.5799 58.1676 16.5808 58.1631 16.5828C58.1586 16.5848 58.1548 16.5879 58.1521 16.5917C58.1494 16.5955 58.1479 16.5999 58.1478 16.6044V18.5132C58.1478 18.5384 58.1595 18.5586 58.1828 18.5736C59.0114 19.1128 59.8389 19.6526 60.6651 20.1929C60.9707 20.3923 61.1438 20.5152 61.1843 20.5614C61.4734 20.888 61.1337 21.5355 60.6126 21.4855C60.4782 21.4726 60.3094 21.3998 60.1062 21.267C59.4715 20.8509 58.8368 20.431 58.2021 20.0074C58.1971 20.0042 58.1912 20.0022 58.1849 20.0017C58.1787 20.0012 58.1725 20.0022 58.1668 20.0046C58.1612 20.007 58.1565 20.0107 58.1531 20.0154C58.1498 20.02 58.1479 20.0253 58.1478 20.0308C58.1484 20.8689 58.1481 21.7124 58.1469 22.5613C58.146 23.1459 57.3993 23.512 57.0199 22.9822C56.9475 22.8822 56.9094 22.719 56.9058 22.4927C56.891 21.6729 56.8831 20.86 56.8818 20.0542C56.8819 20.0483 56.8801 20.0424 56.8766 20.0374C56.8731 20.0323 56.8681 20.0281 56.8621 20.0254C56.8561 20.0226 56.8493 20.0214 56.8426 20.0218C56.8358 20.0222 56.8294 20.0242 56.8238 20.0276C56.0823 20.4786 55.3448 20.9313 54.6113 21.3855C53.9171 21.8153 53.0056 20.9694 53.8674 20.4324C54.871 19.8066 55.8604 19.1938 56.8358 18.5938C56.8831 18.5648 56.9064 18.5253 56.9058 18.4753L56.8837 16.4746C56.8836 16.4708 56.8824 16.467 56.8801 16.4638C56.8778 16.4605 56.8745 16.4579 56.8706 16.4561C56.8668 16.4544 56.8624 16.4536 56.858 16.4539C56.8537 16.4541 56.8495 16.4554 56.8459 16.4576C55.7914 17.1119 54.739 17.7659 53.6888 18.4196C53.1078 18.7809 52.2534 18.7139 52.3712 17.9092C52.4437 17.4189 52.5713 16.3762 52.7542 14.7812C52.7585 14.7441 52.742 14.7349 52.7045 14.7537L50.9653 15.6311C50.9426 15.6429 50.9297 15.6601 50.9266 15.6827C50.8026 16.709 50.6799 17.7342 50.5583 18.7583C50.4506 19.6566 49.1478 19.5163 49.2583 18.6543C49.3534 17.9086 49.4437 17.1619 49.529 16.4141C49.5327 16.3813 49.5182 16.373 49.4857 16.3891C48.7448 16.7498 48.0101 17.1192 47.2815 17.4971C47.0126 17.6369 46.8178 17.7178 46.6968 17.7398C45.9501 17.8769 45.6205 17.0157 46.3175 16.6617C47.1296 16.2493 47.9561 15.8311 48.797 15.4069C48.8553 15.3779 48.8538 15.3513 48.7924 15.3271C48.0098 15.0239 47.2094 14.7142 46.3912 14.3981C45.6389 14.1078 46.0763 13.0369 47.0283 13.3982C48.0969 13.8035 49.1616 14.2178 50.2223 14.6408C50.2373 14.6468 50.2538 14.6496 50.2701 14.6489C50.2865 14.6482 50.3023 14.644 50.3162 14.6368L52.2193 13.6667C52.258 13.6474 52.2571 13.6296 52.2165 13.6135C51.0343 13.1544 49.8531 12.698 48.6727 12.2442C47.9766 11.9773 47.8947 11.3911 48.6294 11.1016C49.7496 10.6602 50.879 10.2231 52.0177 9.79037C52.0243 9.788 52.03 9.78403 52.0341 9.77893C52.0383 9.77383 52.0407 9.7678 52.0411 9.76155C52.0415 9.7553 52.0398 9.74908 52.0363 9.74362C52.0328 9.73816 52.0276 9.73368 52.0214 9.73069L50.3088 8.87027C50.2843 8.8579 50.2591 8.85683 50.2333 8.86704C49.1935 9.27347 48.1546 9.67855 47.1167 10.0823C46.8423 10.1887 46.6177 10.2734 46.3341 10.1452C45.8424 9.92423 45.8986 9.3154 46.416 9.10896C47.2152 8.79017 48.0178 8.47567 48.8237 8.16548C48.8288 8.16337 48.8332 8.16007 48.8364 8.15593C48.8396 8.1518 48.8414 8.14699 48.8417 8.14201C48.842 8.13704 48.8407 8.13209 48.838 8.1277C48.8353 8.12331 48.8313 8.11965 48.8265 8.1171C48.0481 7.72787 47.2729 7.33704 46.5007 6.9446C46.2675 6.82632 46.1149 6.72768 46.0431 6.64865C45.5662 6.12368 46.3129 5.53179 46.997 5.87612C47.822 6.29115 48.6478 6.70805 49.4746 7.12684C49.4795 7.12945 49.4851 7.1308 49.4908 7.13075C49.4965 7.1307 49.5021 7.12925 49.5069 7.12656C49.5117 7.12387 49.5155 7.12004 49.518 7.11553C49.5204 7.11102 49.5213 7.106 49.5207 7.10104C49.4274 6.36937 49.3375 5.63635 49.2509 4.90199C49.1423 3.97464 50.434 3.8569 50.5556 4.81893C50.6802 5.80973 50.8023 6.8024 50.922 7.79696C50.924 7.81491 50.9309 7.83225 50.9423 7.84754C50.9537 7.86283 50.9691 7.87562 50.9874 7.88485L52.7441 8.77108C52.7736 8.78614 52.7865 8.77888 52.7828 8.74931C52.649 7.60907 52.513 6.46909 52.3749 5.32938C52.328 4.94635 52.6999 4.67298 53.1041 4.6883C53.2508 4.69367 53.4347 4.76491 53.6556 4.90199C54.7194 5.56055 55.7849 6.22099 56.8524 6.88331C56.8568 6.88615 56.862 6.88787 56.8674 6.88826C56.8729 6.88866 56.8784 6.88771 56.8832 6.88554C56.8881 6.88336 56.8922 6.88004 56.895 6.87594C56.8979 6.87184 56.8994 6.86714 56.8993 6.86234L56.8873 5.00118C56.8867 4.97591 56.8748 4.95575 56.8514 4.9407C55.8798 4.33967 54.9078 3.73702 53.9355 3.13276C52.9669 2.53119 53.7882 1.66754 54.7402 2.24089C55.4424 2.66344 56.1465 3.08814 56.8524 3.51499C56.8579 3.5184 56.8644 3.52041 56.8711 3.52079C56.8779 3.52118 56.8846 3.51992 56.8906 3.51718C56.8966 3.51443 56.9016 3.51028 56.9051 3.50521C56.9086 3.50013 56.9104 3.49431 56.9104 3.48838C56.8932 2.65242 56.8873 1.8092 56.8929 0.958716C56.8993 0.077325 58.1404 0.0813573 58.1441 0.94904C58.1484 1.80113 58.1493 2.6371 58.1469 3.45693C58.1469 3.51553 58.1736 3.52736 58.227 3.49241C58.9218 3.03277 59.5989 2.58791 60.2581 2.15783C60.9652 1.69576 61.7055 2.62231 60.9422 3.12631C60.0276 3.72949 59.11 4.33241 58.1892 4.93506C58.1764 4.94355 58.166 4.9546 58.1588 4.96733C58.1516 4.98007 58.1478 4.99413 58.1478 5.00844V6.73413C58.1478 6.73787 58.149 6.74154 58.1513 6.74472C58.1535 6.74791 58.1567 6.75048 58.1605 6.75216C58.1644 6.75383 58.1686 6.75454 58.1729 6.75421C58.1772 6.75387 58.1812 6.7525 58.1846 6.75025C59.1692 6.09761 60.1522 5.44712 61.1337 4.79878C61.6244 4.47541 62.1686 4.89474 62.106 5.37051C61.9525 6.53118 61.8089 7.69266 61.6751 8.85495C61.672 8.88452 61.6852 8.89177 61.7147 8.87672ZM56.8358 10.7193C56.8413 10.722 56.8476 10.7234 56.8539 10.7233C56.8602 10.7232 56.8664 10.7217 56.8718 10.7188C56.8773 10.7159 56.8817 10.7119 56.8848 10.707C56.8878 10.7021 56.8893 10.6967 56.8892 10.6911L56.8855 8.32595C56.8855 8.32086 56.884 8.31586 56.8813 8.31136C56.8786 8.30687 56.8747 8.30302 56.8699 8.30015L53.9631 6.50672C53.9575 6.5033 53.9509 6.50137 53.944 6.50115C53.9372 6.50093 53.9304 6.50244 53.9245 6.5055C53.9186 6.50855 53.9138 6.51302 53.9107 6.51838C53.9076 6.52375 53.9063 6.52977 53.907 6.53575L54.2596 9.48394C54.2602 9.48897 54.2622 9.4938 54.2654 9.49801C54.2686 9.50222 54.273 9.50569 54.278 9.50813L56.8358 10.7193ZM58.1248 8.21709V10.6742C58.1248 10.7172 58.146 10.7277 58.1883 10.7056C58.5615 10.5126 59.1526 10.1981 59.9616 9.76214C60.0617 9.70838 60.1436 9.65651 60.2075 9.60651C60.2308 9.58769 60.2446 9.56458 60.2489 9.53716L60.6982 6.51962C60.6989 6.51516 60.6981 6.51061 60.6959 6.50655C60.6936 6.5025 60.69 6.49913 60.6856 6.49687C60.6811 6.49462 60.676 6.49358 60.6709 6.4939C60.6657 6.49422 60.6608 6.49588 60.6568 6.49866L58.1699 8.13726C58.1398 8.15715 58.1248 8.18376 58.1248 8.21709ZM50.4423 11.6306C50.4368 11.6327 50.4322 11.6362 50.4289 11.6407C50.4256 11.6451 50.4239 11.6503 50.4239 11.6556C50.4239 11.6608 50.4256 11.666 50.4289 11.6704C50.4322 11.6749 50.4368 11.6784 50.4423 11.6806L53.6667 12.9184C53.6712 12.9201 53.6762 12.9209 53.6812 12.9206C53.6861 12.9203 53.691 12.919 53.6952 12.9168L55.9629 11.7652C55.9677 11.7628 55.9717 11.7594 55.9745 11.7552C55.9772 11.751 55.9787 11.7463 55.9787 11.7414C55.9787 11.7366 55.9772 11.7319 55.9745 11.7277C55.9717 11.7235 55.9677 11.7201 55.9629 11.7177L53.4825 10.4669C53.4783 10.4647 53.4734 10.4634 53.4685 10.4631C53.4635 10.4628 53.4586 10.4636 53.454 10.4653L50.4423 11.6306ZM58.6708 11.7168C58.6662 11.7191 58.6623 11.7224 58.6597 11.7263C58.657 11.7303 58.6556 11.7348 58.6556 11.7394C58.6556 11.744 58.657 11.7486 58.6597 11.7525C58.6623 11.7565 58.6662 11.7598 58.6708 11.762L60.8602 12.87C60.8643 12.872 60.8688 12.8731 60.8735 12.8732C60.8781 12.8733 60.8827 12.8725 60.8869 12.8708L63.9842 11.6781C63.9893 11.6761 63.9936 11.6728 63.9966 11.6686C63.9996 11.6645 64.0012 11.6597 64.0012 11.6548C64.0012 11.6498 63.9996 11.645 63.9966 11.6409C63.9936 11.6368 63.9893 11.6334 63.9842 11.6314L61.0913 10.5113C61.0871 10.5096 61.0825 10.5087 61.0779 10.5089C61.0732 10.509 61.0687 10.5101 61.0646 10.5121L58.6708 11.7168ZM56.8873 14.9965C56.8914 14.9939 56.8947 14.9905 56.8969 14.9865C56.8992 14.9826 56.9003 14.9783 56.9002 14.9739L56.8901 12.7845C56.8901 12.7798 56.8887 12.7751 56.8861 12.771C56.8834 12.7669 56.8795 12.7634 56.8749 12.761C56.8703 12.7586 56.865 12.7572 56.8596 12.7571C56.8542 12.757 56.8488 12.7581 56.8441 12.7603L54.1639 14.0231C54.1593 14.0254 54.1555 14.0287 54.1527 14.0327C54.15 14.0366 54.1484 14.0411 54.1482 14.0457L53.9088 16.7794C53.9084 16.7846 53.9096 16.7899 53.9125 16.7945C53.9153 16.7991 53.9196 16.8029 53.9248 16.8054C53.9301 16.808 53.936 16.8092 53.942 16.8088C53.948 16.8085 53.9537 16.8067 53.9585 16.8036L56.8873 14.9965ZM58.1883 15.1731C59.0262 15.7171 59.8597 16.2641 60.689 16.8141C60.6921 16.8164 60.6959 16.8177 60.6999 16.818C60.704 16.8183 60.708 16.8175 60.7116 16.8157C60.7151 16.8138 60.7181 16.8111 60.7199 16.8078C60.7218 16.8045 60.7226 16.8008 60.7221 16.7971L60.3078 13.9272C60.3061 13.9154 60.3013 13.904 60.2938 13.894C60.2864 13.8839 60.2763 13.8754 60.2645 13.8691L58.1736 12.766C58.1688 12.7635 58.1634 12.7622 58.1579 12.7621C58.1524 12.7621 58.147 12.7632 58.1422 12.7655C58.1375 12.7678 58.1335 12.7711 58.1308 12.7752C58.128 12.7792 58.1266 12.7838 58.1266 12.7885C58.1248 13.0579 58.076 15.1005 58.1883 15.1731Z" fill="#00B3FF"/>
<path d="M13.6751 54.3098C11.2223 53.2276 8.80998 52.0397 6.87739 50.3262C4.6603 48.3602 3.2958 45.8499 2.85293 43.1194C2.47851 40.8126 2.54112 38.5442 3.04076 36.3142C4.54429 29.6098 11.0575 25.2497 18.6672 24.8811C24.2605 24.611 29.9856 26.0851 33.9391 29.7042C33.9492 29.7133 33.9554 29.7251 33.9566 29.7376C33.9578 29.7502 33.9539 29.7626 33.9456 29.7727L27.4803 37.8222C27.4594 37.848 27.4367 37.8496 27.4122 37.827C27.0285 37.476 26.776 37.2504 26.6544 37.1505C24.0156 34.9635 19.4774 33.8233 16.4225 35.9973C15.2817 36.8093 14.8665 37.9883 14.7486 39.2713C14.5728 41.1929 15.2228 42.567 16.9712 43.7274C18.7878 44.9346 21.0767 45.9426 22.8583 46.7651C24.0663 47.3226 25.2316 47.9414 26.3543 48.6214C30.1274 50.906 32.756 54.4057 33.2293 58.4167C34.0367 65.2663 31.0232 71.9698 23.57 74.8366C18.8716 76.6429 12.9661 76.5792 8.20875 74.9922C5.32506 74.0302 2.51871 72.5932 0.302544 70.6989C0.281674 70.6812 0.279526 70.6618 0.296099 70.6409L6.65089 62.4955C6.7 62.432 6.75463 62.428 6.81478 62.4834C9.08067 64.5478 12.2176 65.9694 15.5174 66.0573C18.298 66.1307 20.6256 64.5389 21.0012 62.085C21.3087 60.0739 20.7324 58.3054 18.8587 57.0596C17.2115 55.9645 15.5146 55.1218 13.6751 54.3098Z" fill="#4E4E4E"/>
<path d="M49.8331 45.3242L50.1388 74.8568C50.1389 74.8601 50.1382 74.8633 50.1369 74.8663C50.1355 74.8694 50.1334 74.8721 50.1307 74.8744C50.1281 74.8768 50.1249 74.8786 50.1214 74.8799C50.1178 74.8812 50.114 74.8818 50.1102 74.8818H38.952C38.9214 74.8818 38.906 74.8684 38.906 74.8415V26.2134C38.906 26.1881 38.9204 26.1755 38.9493 26.1755H52.6919C52.7269 26.1755 52.7505 26.19 52.7628 26.219C56.9527 36.0641 61.141 45.9067 65.3278 55.7468C65.4052 55.9283 65.5378 56.3105 65.7118 56.2226C65.7406 56.2081 65.7551 56.1861 65.7551 56.1565L65.5203 26.211C65.5203 26.1868 65.5338 26.1747 65.5608 26.1747L76.3102 26.1755C76.3224 26.1755 76.3341 26.1797 76.3427 26.1873C76.3514 26.1949 76.3562 26.2051 76.3562 26.2158V74.8415C76.3562 74.8684 76.3409 74.8818 76.3102 74.8818H62.9644C62.9337 74.8818 62.9137 74.8692 62.9045 74.8439C62.8775 74.7676 62.825 74.6396 62.7471 74.4601C58.5265 64.7457 54.3062 55.0308 50.0863 45.3153C50.0421 45.2129 49.9638 45.1685 49.8653 45.2548C49.8432 45.2742 49.8325 45.2973 49.8331 45.3242Z" fill="#00B3FF"/>
<path d="M92.9029 30.6509H82.2253C82.1946 30.6509 82.1793 30.6375 82.1793 30.6106V28.6252C82.1793 28.5914 82.1986 28.5744 82.2373 28.5744H106.327C106.339 28.5744 106.35 28.5784 106.358 28.5855C106.366 28.5926 106.371 28.6023 106.371 28.6123C106.372 30.3375 106.372 32.0653 106.371 33.7958C106.37 35.8828 105.096 37.7617 102.823 38.5447C101.467 39.0116 99.8396 39.0737 98.3839 38.8923C95.7424 38.5625 93.5658 37.0698 93.0631 34.7111C92.9912 34.3724 92.9544 33.837 92.9526 33.1048C92.9507 32.3032 92.9507 31.4998 92.9526 30.6944C92.9526 30.6654 92.936 30.6509 92.9029 30.6509ZM94.9837 33.4773C95.0168 35.2409 96.3777 36.5102 98.3379 36.7989C100.615 37.1343 103.484 36.79 104.163 34.4571C104.255 34.1415 104.3 33.6155 104.3 32.879C104.299 32.1495 104.299 31.4275 104.3 30.713C104.3 30.6716 104.276 30.6509 104.23 30.6509H95.0445C95.0058 30.6509 94.9861 30.6678 94.9855 30.7017C94.9671 31.6366 94.9665 32.5618 94.9837 33.4773Z" fill="#4E4E4E"/>
<path d="M84.354 49.198H82.2373C82.2219 49.198 82.2071 49.1927 82.1962 49.1831C82.1854 49.1736 82.1793 49.1607 82.1793 49.1472V41.0841C82.1793 41.0706 82.1854 41.0577 82.1962 41.0481C82.2071 41.0386 82.2219 41.0333 82.2373 41.0333H106.313C106.329 41.0333 106.343 41.0386 106.354 41.0481C106.365 41.0577 106.371 41.0706 106.371 41.0841V43.0993C106.371 43.1127 106.365 43.1256 106.354 43.1352C106.343 43.1447 106.329 43.1501 106.313 43.1501H84.4626C84.4473 43.1501 84.4325 43.1554 84.4216 43.1649C84.4107 43.1745 84.4046 43.1874 84.4046 43.2009L84.412 49.1472C84.412 49.1607 84.4059 49.1736 84.395 49.1831C84.3841 49.1927 84.3694 49.198 84.354 49.198Z" fill="#4E4E4E"/>
<path d="M87.198 61.2754C84.295 60.7666 81.9997 59.2038 81.6691 56.4789C81.3846 54.1396 82.007 51.9639 84.4073 50.6834C86.3114 49.6681 88.7273 49.4867 90.9444 49.4843C96.0716 49.4783 101.199 49.4775 106.326 49.4818C106.357 49.4818 106.372 49.4953 106.372 49.5222V51.5333C106.372 51.5618 106.356 51.5761 106.323 51.5761L91.2962 51.5793C88.2596 51.5801 83.6487 51.9728 83.7877 55.6298C83.9065 58.7473 87.4954 59.4473 90.3515 59.4505C95.6745 59.4564 101.001 59.4599 106.33 59.461C106.341 59.461 106.352 59.4649 106.36 59.4719C106.368 59.4788 106.372 59.4882 106.372 59.4981V61.535C106.372 61.5451 106.367 61.5547 106.359 61.5618C106.351 61.5689 106.34 61.5729 106.329 61.5729C100.809 61.5826 95.2918 61.5789 89.7761 61.5617C89.1365 61.5595 88.2771 61.4641 87.198 61.2754Z" fill="#4E4E4E"/>
<path d="M86.5072 73.8963C80.541 72.8286 80.2436 66.4306 84.408 63.5131C84.4206 63.5043 84.4364 63.4996 84.4525 63.4999C84.4687 63.5002 84.4842 63.5054 84.4964 63.5147L86.0708 64.7219C86.0808 64.7296 86.0887 64.7392 86.0939 64.7499C86.0991 64.7606 86.1016 64.7722 86.101 64.7838C86.1005 64.7954 86.097 64.8067 86.0908 64.8169C86.0847 64.8272 86.0759 64.836 86.0653 64.8428C84.6363 65.7662 83.6641 67.3225 83.8022 68.9168C83.9366 70.4691 85.174 71.5851 86.9197 71.9012C89.6018 72.3867 91.5822 71.3513 92.8584 69.3183C94.2376 67.1209 95.3802 64.8888 98.5208 64.255C99.9175 63.9727 101.629 64.0493 102.994 64.4775C105.26 65.1888 106.766 66.9056 106.932 69.0256C107.082 70.9271 106.45 72.7931 104.661 73.9785C104.649 73.9862 104.634 73.9901 104.619 73.9896C104.605 73.989 104.59 73.9839 104.579 73.9753L103.018 72.7762C102.955 72.7278 102.958 72.6826 103.027 72.6407C104.54 71.715 105.162 69.9522 104.562 68.4224C104.148 67.3666 103.277 66.6709 101.948 66.3355C100.741 66.0307 99.3347 66.0532 98.2142 66.5476C96.5109 67.2991 95.7688 68.853 94.9208 70.2328C93.1088 73.1826 90.3779 74.5881 86.5072 73.8963Z" fill="#4E4E4E"/>
</svg>
